<svg version="1.1" xmlns="http://www.w3.org/2000/svg" style="display: block;" viewBox="0 0 1536 2048" width="1024" height="1365">
<path transform="translate(0,0)" fill="rgb(75,78,77)" d="M 0 0 L 1536 0 L 1536 2046.25 C 1535.32 2046.64 1534.57 2047.12 1533.81 2047.38 C 1526.81 2049.75 1466.36 2048 1454.87 2048 L 1215.47 2048.02 L 24.3373 2048 C 17.701 2048 5.68581 2049.5 0 2046.25 L 0 0 z"/>
<path transform="translate(0,0)" fill="rgb(249,221,165)" d="M 215.434 50.5119 C 341.818 48.8007 468.366 50.566 594.768 50.4282 L 1491.52 50.7622 C 1492.18 80.5638 1491.37 110.59 1491.34 140.417 L 1491.13 332.77 L 1491.45 867.142 L 1491.42 1609.42 A 35107.5 35107.5 0 0 1 1491.34 1999.31 C 1490.34 1999.83 1489.3 2000.37 1488.19 2000.63 C 1478.56 2002.91 1441.13 2000.34 1428.22 2000.24 C 1396.31 1999.97 1363.93 2001.5 1332.08 2000 C 1329.83 1999.89 1328.47 1999.46 1326.5 1998.36 C 1325.51 1998.96 1324.66 1999.49 1323.5 1999.73 C 1314.21 2001.68 1270.86 2000.09 1258.78 2000.1 L 1084.79 2000.11 L 375.618 2000.08 L 142.128 2000.15 L 77.7134 2000.21 C 68.2599 2000.27 56.9825 2001.58 47.6753 2000.33 C 46.4572 2000.16 45.6651 1999.68 44.6085 1999.1 L 44.4607 50.8608 L 215.434 50.5119 z"/>
<path transform="translate(0,0)" fill="rgb(75,78,77)" d="M 67.3475 74.0869 L 1468.06 73.8382 L 1468.14 1769.87 C 1468.12 1792.72 1469.71 1972.36 1468.38 1975.19 L 1465.51 1974.52 C 1464.68 1974.95 1463.9 1975.37 1463 1975.62 C 1455.11 1977.82 1422.32 1976.1 1411.98 1976.19 A 10692.1 10692.1 0 0 1 1219.22 1977.09 L 433.764 1976.83 L 186.994 1976.17 C 149.641 1976.11 108.951 1978.01 71.9958 1976.41 C 69.9303 1976.32 68.8425 1975.94 67.0315 1975.03 L 67.3475 74.0869 z"/>
<path transform="translate(0,0)" fill="rgb(249,221,165)" d="M 85.8665 94.0709 L 987.01 93.6943 L 1334.64 94.0334 A 8859.7 8859.7 0 0 1 1449.62 94.3773 C 1450.21 116.594 1449.62 138.96 1449.65 161.193 A 8955.49 8955.49 0 0 1 1449.94 284.361 L 1448.38 722.801 L 1449.42 1955.35 L 1447.51 1956.06 C 1446.71 1956.42 1445.84 1956.8 1444.99 1957.01 C 1435.96 1959.25 1393.22 1957.37 1381.8 1957.32 L 1211.62 1956.88 L 448.255 1956.96 L 205.895 1957.24 L 129.186 1957.17 C 116.229 1957.15 102.953 1957.76 90.0418 1956.96 C 88.2488 1956.85 86.7829 1956.37 85.2062 1955.55 L 85.8665 94.0709 z"/>
<path transform="translate(0,0)" fill="rgb(75,78,77)" d="M 685.047 1278.12 C 690.768 1277.75 699.414 1278.86 704.822 1280.87 C 707.582 1281.9 707.53 1282.37 708.68 1284.93 C 702.582 1285.38 692.37 1284.91 687.016 1281.67 C 685.343 1280.66 685.577 1279.9 685.047 1278.12 z"/>
<path transform="translate(0,0)" fill="rgb(75,78,77)" d="M 604.86 598.805 C 606.215 599.468 606.589 600.001 607.523 601.145 C 604.914 607.195 591.188 611.786 585.262 614.343 C 583.837 613.781 583.489 613.204 582.521 612.061 C 584.473 606.865 599.67 601.596 604.86 598.805 z"/>
<path transform="translate(0,0)" fill="rgb(75,78,77)" d="M 94.5659 1934.23 A 105.672 105.672 0 0 1 101.018 1937.01 C 105.318 1939.09 108.827 1941 110.504 1945.76 C 105.398 1948.3 99.2595 1947.65 93.9988 1946.04 C 93.9902 1942.1 94.298 1938.17 94.5659 1934.23 z"/>
<path transform="translate(0,0)" fill="rgb(75,78,77)" d="M 1432.4 1936.17 L 1437.9 1937.26 C 1439.98 1939.17 1440.69 1940.52 1441.59 1943.18 C 1441.09 1945.45 1441.02 1945.56 1439.29 1947.11 C 1436.46 1947.67 1435.04 1946.87 1432.52 1945.63 C 1431.89 1945.97 1431.16 1946.4 1430.48 1946.66 C 1427.87 1947.68 1425.04 1947.8 1422.59 1946.59 C 1423.19 1942.73 1429.52 1938.61 1432.4 1936.17 z"/>
<path transform="translate(0,0)" fill="rgb(75,78,77)" d="M 94.5652 103.151 L 114.351 103.11 C 112.026 107.206 109.578 110.71 106.527 114.299 C 104.37 116.084 101.285 118.785 98.5135 119.388 C 96.7632 119.769 96.693 119.328 95.2338 118.504 C 93.47 113.863 94.3324 108.086 94.5652 103.151 z"/>
<path transform="translate(0,0)" fill="rgb(75,78,77)" d="M 1227.36 1826.77 C 1232.24 1831.81 1235.73 1844.12 1238.63 1850.73 C 1237.11 1853.78 1234.93 1855.91 1231.87 1857.32 C 1231.76 1857.53 1231.67 1857.75 1231.55 1857.96 C 1230.22 1860.29 1228.49 1862.74 1225.82 1863.49 C 1226.88 1851.25 1227.14 1839.05 1227.36 1826.77 z"/>
<path transform="translate(0,0)" fill="rgb(75,78,77)" d="M 1421.19 102.467 C 1427.74 102.316 1434.3 102.502 1440.85 102.603 L 1440.76 120.63 C 1436.22 119.733 1431.63 117.979 1427.94 115.145 C 1423.7 111.887 1422.01 107.596 1421.19 102.467 z"/>
<path transform="translate(0,0)" fill="rgb(75,78,77)" d="M 450.866 1131.35 C 477.447 1145.91 503.006 1179.42 515.592 1206.71 L 513.648 1206.81 C 513.184 1209.38 513.716 1211.45 513.658 1213.95 C 504.375 1192.98 489.826 1172.23 473.684 1155.97 C 468.695 1150.94 462.548 1146.93 457.756 1141.79 L 456.867 1140.83 C 458.16 1140.63 459.508 1141.12 460.733 1141.51 C 461.065 1141.62 461.394 1141.74 461.725 1141.85 L 460.851 1141.1 L 461.779 1141.03 C 457.402 1139.73 453.104 1135.25 450.866 1131.35 z"/>
<path transform="translate(0,0)" fill="rgb(75,78,77)" d="M 561.408 1220.94 C 560.36 1217.57 559.357 1214.34 561.131 1211.03 C 562.308 1208.83 564.043 1207.5 566.484 1206.95 C 581.232 1203.61 605.833 1218.98 617.154 1227.07 C 624.031 1231.98 637.706 1241.62 639.845 1250.42 C 640.469 1252.99 639.652 1253.96 638.275 1256.05 C 631.119 1260.35 618.863 1258.79 611.093 1256.77 C 602.569 1254.55 593.681 1249.89 586.109 1245.48 C 589.106 1245.46 592.115 1245.28 595.111 1245.18 C 609.251 1252.4 620.24 1255.11 636.054 1253.66 C 628.532 1238.49 609.431 1226.85 594.591 1219.42 C 587.202 1215.73 575.602 1209.23 567.375 1211.99 C 564.899 1214.42 565.165 1215.04 564.717 1218.36 C 563.437 1220.07 563.451 1220.43 561.408 1220.94 z"/>
<path transform="translate(0,0)" fill="rgb(75,78,77)" d="M 411.576 1233.78 C 415.117 1234.07 418.272 1234.42 421.407 1236.2 C 429.41 1240.75 447.403 1254.44 449.429 1263.58 C 450.229 1267.2 449.27 1269.42 447.236 1272.36 C 439.874 1272.31 436.274 1270.8 430.232 1266.73 C 422.782 1261.71 410.131 1252.72 408.615 1243.05 C 408.013 1239.21 409.48 1236.87 411.576 1233.78 z"/>
<path transform="translate(0,0)" fill="rgb(249,221,165)" d="M 412.835 1238.5 C 413.706 1238.55 414.566 1238.6 415.431 1238.73 C 422.632 1239.76 438.387 1254.83 442.642 1260.68 C 444.773 1263.61 445.129 1265.84 444.6 1269.36 C 435.768 1268.16 421.723 1254.68 416.043 1248.25 C 413.035 1244.85 412.538 1243.01 412.835 1238.5 z"/>
<path transform="translate(0,0)" fill="rgb(75,78,77)" d="M 1248.28 1769.57 C 1257.88 1776.13 1280.48 1800.52 1288.31 1802.87 C 1285.76 1807.04 1279.67 1813.69 1275.08 1815.29 C 1274.96 1815.51 1274.86 1815.74 1274.72 1815.95 C 1272.22 1820.01 1264.23 1828.29 1259.72 1829.32 C 1258.13 1808.4 1255.26 1789.43 1248.28 1769.57 z"/>
<path transform="translate(0,0)" fill="rgb(75,78,77)" d="M 667.764 567.282 C 660.215 572.054 644.581 576.34 635.682 574.649 C 632.298 574.006 631.158 572.681 629.384 570.023 C 629.124 567.951 629.15 566.28 629.973 564.32 C 633.225 556.574 642.295 550.718 649.733 547.508 C 660.373 542.917 671.122 542.298 681.956 546.519 C 684.403 548.095 684.916 548.108 685.936 550.95 C 684.513 556.831 677.987 561.52 673.024 564.536 C 671.338 565.561 669.586 566.526 667.764 567.282 z"/>
<path transform="translate(0,0)" fill="rgb(249,221,165)" d="M 667.785 562.334 C 659.627 565.83 651.634 568.731 642.751 569.699 C 639.594 570.043 636.227 570.257 633.628 568.19 L 633.579 565.872 C 635.201 563.179 637.178 561.225 639.649 559.328 C 651.56 550.181 664.408 547.439 679.065 549.245 C 679.454 551.5 679.649 551.918 678.248 553.912 C 675.969 557.152 671.064 560.034 667.785 562.334 z"/>
<path transform="translate(0,0)" fill="rgb(75,78,77)" d="M 515.592 1206.71 C 518.595 1212.98 521.15 1219.31 523.112 1226 C 525.627 1234.56 528.462 1247.49 523.438 1255.69 C 521.85 1258.28 519.159 1260 516.192 1260.57 C 503.792 1262.94 485.942 1252.73 476.162 1246.1 C 446.293 1225.85 419.895 1192.87 413.407 1156.89 C 411.983 1148.99 410.292 1137.57 415.445 1130.67 C 418.283 1126.86 422.52 1125.03 427.122 1124.41 C 435.216 1123.31 444.539 1126.3 450.866 1131.35 C 453.104 1135.25 457.402 1139.73 461.779 1141.03 L 460.851 1141.1 L 461.725 1141.85 C 461.394 1141.74 461.065 1141.62 460.733 1141.51 C 459.508 1141.12 458.16 1140.63 456.867 1140.83 C 448.729 1135.58 435.749 1126.22 425.541 1128.82 C 422.896 1129.5 420.923 1131.17 419.665 1133.57 C 414.399 1143.63 419.421 1162.62 422.974 1172.64 C 433.933 1203.56 462.837 1235.85 492.754 1250.06 C 499.052 1253.05 508.206 1256.88 515.166 1254.39 C 517.782 1253.46 519.577 1251.59 520.556 1249.01 C 524.065 1239.74 517.56 1222.74 513.658 1213.95 C 513.716 1211.45 513.184 1209.38 513.648 1206.81 L 515.592 1206.71 z"/>
<path transform="translate(0,0)" fill="rgb(75,78,77)" d="M 415.394 837.451 C 416.586 838.066 417.045 838.337 417.753 839.538 C 419.227 842.035 415.549 852.193 414.688 855.216 C 396.462 919.2 397.608 991.582 422.214 1053.75 C 428.177 1068.82 436.344 1081.95 443.532 1096.3 C 444.867 1098.96 444.581 1099.77 443.756 1102.44 C 437.072 1100.14 428.926 1080.65 425.77 1074.16 C 390.131 1000.93 389.037 913.798 415.394 837.451 z"/>
<path transform="translate(0,0)" fill="rgb(249,221,165)" d="M 564.717 1218.36 C 565.165 1215.04 564.899 1214.42 567.375 1211.99 C 575.602 1209.23 587.202 1215.73 594.591 1219.42 C 609.431 1226.85 628.532 1238.49 636.054 1253.66 C 620.24 1255.11 609.251 1252.4 595.111 1245.18 C 592.115 1245.28 589.106 1245.46 586.109 1245.48 C 575.544 1238.53 567.48 1232.2 561.408 1220.94 C 563.451 1220.43 563.437 1220.07 564.717 1218.36 z"/>
<path transform="translate(0,0)" fill="rgb(75,78,77)" d="M 564.717 1218.36 C 573.37 1230.13 582.932 1237.44 595.111 1245.18 C 592.115 1245.28 589.106 1245.46 586.109 1245.48 C 575.544 1238.53 567.48 1232.2 561.408 1220.94 C 563.451 1220.43 563.437 1220.07 564.717 1218.36 z"/>
<path transform="translate(0,0)" fill="rgb(75,78,77)" d="M 430.178 697.701 C 437.693 689.358 448.577 679.026 460.603 678.724 C 462.817 678.669 464.25 679.123 465.949 680.577 C 467.569 683.442 467.185 685.907 466.387 689.025 C 461.59 707.751 438.337 733.253 421.634 742.08 C 418.725 743.618 414.858 745.205 411.553 744.098 C 409.789 743.506 409.658 742.726 408.63 741.271 C 407.76 735.984 409.069 732.139 411.289 727.372 C 412.858 717.979 423.675 704.426 430.178 697.701 z"/>
<path transform="translate(0,0)" fill="rgb(249,221,165)" d="M 435.927 698.589 C 441.866 692.88 450.352 684.472 459.048 684.254 C 460.352 685.178 460.711 684.958 460.933 686.677 C 462.066 695.441 449.836 708.91 444.48 715.013 C 437.799 722.626 424.696 737.722 414.842 739.065 L 413.073 738.156 C 412.814 736.533 412.537 734.96 412.467 733.314 C 416.494 730.057 423.055 715.231 426.604 709.918 C 429.302 705.88 432.698 702.207 435.927 698.589 z"/>
<path transform="translate(0,0)" fill="rgb(75,78,77)" d="M 388.301 709.663 C 388.107 709.765 387.915 709.87 387.719 709.969 C 382.903 712.403 375.988 716.294 370.518 713.933 C 368.163 712.917 366.884 710.99 366.332 708.553 C 364.157 698.95 373.871 682.664 378.81 674.978 C 390.557 656.699 411.345 634.334 433.601 629.668 C 437.726 628.803 443.109 628.462 446.71 631.086 C 448.411 632.325 449.428 634.125 449.727 636.195 C 451.478 648.289 436.105 664.798 428.919 673.723 C 417.231 687.627 404.436 700.875 388.301 709.663 z"/>
<path transform="translate(0,0)" fill="rgb(249,221,165)" d="M 385.813 706.3 C 381.223 708.455 376.513 711.432 371.46 709.647 C 370.588 708 370.39 706.915 370.658 705.042 C 373.921 682.27 397.629 656.647 415.475 643.78 C 422.228 638.912 431.998 632.504 440.711 633.901 C 442.664 635.193 443.838 635.745 444.19 638.217 C 445.58 647.989 430.811 663.755 425.243 670.887 C 417.06 680.306 408.793 688.595 399.063 696.423 C 395.146 699.575 388.995 702.785 385.813 706.3 z"/>
<path transform="translate(0,0)" fill="rgb(75,78,77)" d="M 1432.45 1872.21 C 1434.75 1872.82 1437 1873.26 1439.35 1873.62 C 1442.36 1877.9 1440.47 1918.75 1440.4 1926.95 L 1439.77 1927.43 C 1421.53 1929.12 1422.47 1932.98 1411.75 1945.28 L 1410.89 1946.26 C 1410.32 1946.54 1409.42 1947.03 1408.77 1947.22 C 1402.35 1949.11 1380.1 1948.7 1374.51 1945.57 C 1372.52 1946.58 1370.21 1947.61 1367.94 1947.4 C 1366.22 1947.24 1366.37 1946.85 1365.32 1945.61 C 1364.46 1939.22 1366.78 1933.02 1368.99 1927.12 C 1377.34 1904.84 1392.44 1888.27 1414.24 1878.94 C 1419.99 1876.48 1426.17 1875.18 1431.8 1872.53 C 1432.02 1872.42 1432.23 1872.31 1432.45 1872.21 z"/>
<path transform="translate(0,0)" fill="rgb(75,78,77)" d="M 94.6224 1872.24 C 119.66 1878.05 141.297 1888.6 157.098 1909.46 C 161.897 1915.79 175.623 1938.37 174.503 1946.27 C 173.439 1946.74 173.356 1946.81 172.147 1947.21 C 167.754 1948.68 127.329 1948.77 122.7 1946.57 C 117.262 1938.83 112.639 1932.56 103.55 1928.78 C 100.106 1927.34 97.0189 1926.5 94.0429 1924.09 C 94.1447 1906.82 93.9847 1889.5 94.6224 1872.24 z"/>
<path transform="translate(0,0)" fill="rgb(75,78,77)" d="M 123.106 103.14 A 3423.69 3423.69 0 0 0 174.202 102.939 C 168.593 130.907 154.592 151.64 131.274 167.984 C 119.651 175.455 107.712 180.156 94.2313 183.139 L 94.128 129.711 C 98.1549 128.717 102.257 127.766 105.99 125.912 C 115.639 121.12 119.769 112.853 123.106 103.14 z"/>
<path transform="translate(0,0)" fill="rgb(75,78,77)" d="M 1360.84 103.088 L 1411.71 102.936 C 1413.02 106.81 1414.23 111.05 1416.37 114.559 C 1422.09 123.964 1430.76 127.992 1441.11 130.467 C 1441.32 147.802 1441.05 165.168 1440.98 182.506 C 1420.3 178.979 1402.2 169.777 1387.7 154.506 C 1376.36 142.56 1360.37 120.383 1360.84 103.088 z"/>
<path transform="translate(0,0)" fill="rgb(75,78,77)" d="M 1202.82 1899.31 C 1210.07 1903.95 1341.66 1946.54 1347 1945.55 C 1338.64 1948.36 1304.19 1949.83 1296.49 1946.17 C 1296.1 1946.36 1295.72 1946.59 1295.32 1946.74 C 1289.91 1948.8 1171.8 1948.14 1158.07 1946.89 C 1155.98 1946.7 1154.17 1946.03 1152.34 1945.02 C 1152.72 1944.96 1153.1 1944.91 1153.48 1944.84 C 1159.57 1943.59 1198.69 1905.52 1202.82 1899.31 z"/>
<path transform="translate(0,0)" fill="rgb(75,78,77)" d="M 164.364 148.595 C 199.548 168.159 232.869 192.04 266.562 214.079 C 257.187 223.618 247.312 232.717 237.64 241.956 C 232.23 247.076 227.121 252.54 221.933 257.884 C 211.44 245.234 202.132 231.063 192.364 217.813 A 2246.45 2246.45 0 0 0 151.354 164.299 C 155.868 159.215 160.091 153.881 164.364 148.595 z"/>
<path transform="translate(0,0)" fill="rgb(75,78,77)" d="M 332.423 1897.63 C 343.079 1904.98 379.29 1943.57 386.81 1945.49 C 386.605 1945.56 386.399 1945.63 386.194 1945.71 C 385.305 1946.04 384.438 1946.35 383.515 1946.59 C 375.334 1948.73 262.439 1948.38 248.917 1947.54 C 246.736 1947.4 245.371 1946.91 243.48 1945.82 C 242.51 1946.37 241.608 1946.9 240.512 1947.17 C 234.475 1948.65 200.026 1948.49 193.098 1947.54 C 190.912 1947.24 188.989 1946.13 187.146 1944.98 C 187.608 1945.07 188.066 1945.18 188.531 1945.25 C 194.06 1946.08 325.48 1903.14 332.423 1897.63 z"/>
<path transform="translate(0,0)" fill="rgb(75,78,77)" d="M 384.837 103.538 L 385.304 103.879 C 384.651 106.872 339.08 147.105 332.408 153.927 C 298.28 141.337 263.559 129.984 229.171 118.098 C 215.505 113.418 202.007 108.308 188.219 103.982 C 253.6 101.496 319.377 105.247 384.837 103.538 z"/>
<path transform="translate(0,0)" fill="rgb(75,78,77)" d="M 1371.41 150.148 C 1376.36 153.913 1381.03 160.265 1385.34 164.907 C 1362.94 196.542 1337.91 226.215 1316.01 258.145 C 1310.2 253.432 1304.8 248.192 1299.31 243.106 C 1288.46 233.717 1278.19 223.502 1267.72 213.688 C 1303.25 194.748 1337.06 171.205 1371.41 150.148 z"/>
<path transform="translate(0,0)" fill="rgb(75,78,77)" d="M 1311.94 1794.5 C 1319.96 1800.9 1327.2 1813.71 1333.25 1822.07 C 1348.93 1843.74 1364.52 1867.06 1381.76 1887.48 C 1379.31 1892.77 1371.59 1902.6 1367.01 1906.5 C 1366.74 1906.5 1366.46 1906.55 1366.18 1906.52 C 1361.07 1905.99 1352.64 1898.57 1349.48 1894.68 C 1349.24 1894.66 1349 1894.67 1348.77 1894.62 C 1346.24 1894.09 1271.32 1838.79 1268.61 1835.35 C 1273.12 1834.26 1307.39 1799.83 1311.94 1794.5 z"/>
<path transform="translate(0,0)" fill="rgb(75,78,77)" d="M 1148.75 103.333 C 1171.68 102.356 1195.04 103.239 1218.01 103.272 L 1348.35 103.751 C 1335.38 109.117 1321.57 113.083 1308.26 117.541 C 1273.76 130.425 1238.14 140.786 1203.95 154.329 C 1194.16 145.231 1153.28 110.352 1148.75 103.333 z"/>
<path transform="translate(0,0)" fill="rgb(75,78,77)" d="M 222.205 1794.63 C 229.657 1801.77 262.706 1834.93 269.645 1836.99 C 269.458 1837.31 269.285 1837.64 269.084 1837.95 C 266.509 1841.97 194.264 1890.81 187.508 1892.15 C 186.997 1893 186.995 1893.09 186.191 1893.92 C 182.548 1897.69 171.566 1905.16 166.407 1905.25 C 161.997 1903.05 154.773 1892.85 152.48 1888.43 C 157.49 1886.13 216.628 1803.76 222.205 1794.63 z"/>
<path transform="translate(0,0)" fill="rgb(75,78,77)" d="M 576.729 548.275 C 580.701 547.884 585.338 547.522 589.139 548.971 C 592.016 550.067 594.239 552.442 595.32 555.31 C 596.789 559.207 595.608 563.178 593.869 566.763 C 580.592 594.13 522.697 632.005 493.903 641.561 C 488.461 642.574 483.124 642.898 478.007 640.332 C 476.271 639.461 474.88 637.981 474.382 636.082 C 472.934 630.555 476.689 623.406 479.359 618.701 C 498.29 585.342 540.295 558.207 576.729 548.275 z"/>
<path transform="translate(0,0)" fill="rgb(249,221,165)" d="M 577.075 553.166 C 580.001 552.917 584.049 552.323 586.861 553.403 C 588.343 553.972 589.337 554.92 589.862 556.406 C 591.011 559.664 589.219 563.792 587.797 566.704 C 575.401 592.1 519.889 627.201 493.102 636.663 C 490.319 637.304 487.051 638.032 484.235 637.148 C 481.596 636.32 480.977 635.158 479.847 632.794 C 479.937 628.538 481.504 625.089 483.549 621.453 C 501.231 590.015 542.72 562.519 577.075 553.166 z"/>
<path transform="translate(0,0)" fill="rgb(75,78,77)" d="M 169.469 1745.64 C 182.88 1755.54 202.278 1781.05 215.334 1787.69 C 212.689 1794.07 159.975 1864.14 154.503 1868.07 C 152.456 1872.55 147.746 1879.33 143.49 1881.78 C 143.251 1881.78 143.011 1881.83 142.773 1881.8 C 138.377 1881.37 125.143 1872.51 121.941 1869.11 C 126.426 1862.96 133.954 1838.16 137.252 1829.58 C 147.975 1801.72 160.27 1774.05 169.469 1745.64 z"/>
<path transform="translate(0,0)" fill="rgb(75,78,77)" d="M 142.401 170.842 C 143.384 171.07 144.278 171.305 145.049 171.992 C 150.795 177.11 156.272 186.346 161.068 192.581 C 179.19 216.143 196.352 240.538 214.863 263.781 A 2151.37 2151.37 0 0 1 181.566 295.222 L 167.658 307.669 C 153.135 266.223 136.655 225.671 121.042 184.641 C 128.386 180.296 135.611 176.037 142.401 170.842 z"/>
<path transform="translate(0,0)" fill="rgb(75,78,77)" d="M 1364.21 1742.69 C 1369.78 1748.3 1396.86 1825.74 1402 1839.92 C 1404.93 1848.01 1407.72 1860.57 1412.73 1867.37 C 1408.59 1871.99 1395.93 1878.97 1389.8 1880.06 C 1386.18 1878.07 1382.4 1871.14 1380.38 1867.42 C 1378.04 1865.94 1321.88 1791.89 1319.17 1786.22 C 1328.85 1780.97 1354.55 1752.24 1364.21 1742.69 z"/>
<path transform="translate(0,0)" fill="rgb(75,78,77)" d="M 1392.81 171.643 C 1400.2 177.147 1407.52 181.467 1416.02 185.069 C 1411.01 201.95 1403.64 218.675 1397.57 235.249 C 1388.5 260.009 1380.14 285.043 1371.16 309.843 C 1367.32 306.01 1363.29 302.334 1359.35 298.596 C 1347.22 287.125 1334.3 276.522 1322.21 264.991 C 1330.56 251.341 1341.96 239.173 1351.77 226.537 C 1365.76 208.502 1379.11 189.913 1392.81 171.643 z"/>
<path transform="translate(0,0)" fill="rgb(75,78,77)" d="M 1083.72 1785.46 C 1088.16 1791.71 1090.57 1802.65 1092.68 1810.09 C 1105.38 1854.68 1112.66 1899.95 1116.14 1946.16 C 1111.36 1948.83 1047.9 1948.2 1040.1 1946.42 C 1043.11 1939.66 1043.55 1929.59 1044.68 1922.22 C 1047.65 1907.37 1048.22 1892.18 1049.06 1877.1 C 1051.8 1886.78 1056.64 1899.03 1062.34 1907.32 C 1069.11 1892.95 1071.85 1853.22 1071.75 1836.45 C 1075.12 1842.12 1088.52 1861.15 1093.59 1863.9 C 1095.76 1837.37 1087.97 1811.28 1083.72 1785.46 z"/>
<path transform="translate(0,0)" fill="rgb(75,78,77)" d="M 669.05 1340.28 C 668.153 1340.57 668.087 1340.62 667.002 1340.78 C 634.386 1345.77 571.893 1327.94 546.728 1306.78 C 543.226 1303.84 539.612 1299.91 539.452 1295.08 C 539.346 1291.88 540.512 1288.85 542.827 1286.62 C 549.337 1280.36 564.209 1280.66 572.565 1280.72 C 607.647 1280.95 658.731 1296.11 683.414 1321.8 C 686.146 1324.65 690.153 1329.34 689.85 1333.49 C 689.668 1335.97 688.145 1336.66 686.423 1338.2 C 680.545 1338.42 674.923 1340.21 669.05 1340.28 z"/>
<path transform="translate(0,0)" fill="rgb(249,221,165)" d="M 664.147 1336.47 C 629.236 1338.79 591.036 1326.73 560.81 1310.05 C 554.693 1306.68 546.444 1302.87 544.367 1295.7 C 544.642 1293.06 545.277 1291.43 547.373 1289.67 C 553.755 1284.33 567.763 1285.47 575.629 1285.83 C 607.949 1287.28 660.148 1301.78 681.555 1326.47 C 683.601 1328.83 684.183 1329.98 684 1333.06 C 677.538 1335.4 670.983 1336.14 664.147 1336.47 z"/>
<path transform="translate(0,0)" fill="rgb(75,78,77)" d="M 275.422 1844.54 C 288.201 1850.55 314.815 1885.77 326.793 1889.76 C 326.154 1890.53 325.613 1891.17 324.757 1891.72 C 319.458 1895.13 230.214 1923.35 218.429 1926.46 C 216.922 1926.85 215.998 1926.77 214.498 1926.49 C 214.236 1926.69 213.985 1926.9 213.714 1927.09 C 209.374 1930.11 188.096 1937.47 183.076 1936.71 C 179.169 1929.77 176.472 1921.69 172.671 1914.54 C 179.257 1913.94 269.728 1850.95 275.422 1844.54 z"/>
<path transform="translate(0,0)" fill="rgb(75,78,77)" d="M 1261.09 1843.41 C 1281.78 1854.94 1349.46 1912.84 1362.15 1915.94 C 1359.47 1923.53 1357.96 1931.43 1355.59 1939.11 C 1355.15 1939.21 1354.4 1939.42 1353.9 1939.43 C 1349.36 1939.5 1328.08 1931.22 1324.5 1928.22 C 1324.02 1928.31 1323.12 1928.51 1322.57 1928.5 C 1317.63 1928.45 1227.9 1899.03 1217.29 1894.48 C 1215.18 1893.58 1213.51 1892.38 1211.95 1890.69 C 1216.49 1889.75 1256.8 1849.63 1261.09 1843.41 z"/>
<path transform="translate(0,0)" fill="rgb(75,78,77)" d="M 602.092 715.434 C 621.164 717.1 641.135 723.666 658.43 731.861 C 675.889 740.134 748.894 788.657 759.656 788.507 C 747.871 773.944 727.87 764.217 712.82 753.225 C 698.864 743.031 687.203 730.518 676.802 716.802 C 688.981 726.016 700.264 736.411 712.48 745.606 C 729.192 758.184 747.042 769.716 762.741 783.557 C 770.844 789.048 781.995 799.79 783.892 809.845 C 784.615 813.683 783.685 817.311 781.457 820.488 C 778.738 824.366 774.592 826.668 769.948 827.379 C 765.1 828.121 760.467 827.293 756.09 825.189 C 744.395 819.569 733.399 811.496 722.46 804.508 L 672.573 773.208 A 1359.46 1359.46 0 0 0 640.484 753.568 C 632.967 749.108 624.44 744.84 617.614 739.385 C 610.263 733.509 607.133 723.189 602.092 715.434 z"/>
<path transform="translate(0,0)" fill="rgb(75,78,77)" d="M 1351.45 112.96 C 1351.53 112.97 1351.61 112.962 1351.67 112.992 C 1351.68 112.995 1353.37 113.862 1353.38 113.884 C 1354.76 115.668 1355.97 121.195 1356.9 123.472 C 1359.64 130.2 1362.83 136.445 1366.44 142.747 C 1352.61 148.563 1339.64 158.334 1326.9 166.249 L 1260.71 207.161 C 1255.5 202.551 1250.44 197.746 1245.33 193.015 A 4442.96 4442.96 0 0 0 1211.75 161.718 C 1258.65 146.688 1305.05 129.461 1351.45 112.96 z"/>
<path transform="translate(0,0)" fill="rgb(75,78,77)" d="M 182.672 112.56 C 200.338 116.455 218.272 124.231 235.372 130.259 C 264.731 140.61 294.169 150.645 323.388 161.397 L 294.339 188.999 L 274.396 208.203 C 262.27 198.888 248.904 191.223 236.111 182.871 C 214.259 168.606 192.746 154.225 170.26 140.941 C 175.37 131.719 179.502 122.608 182.672 112.56 z"/>
<path transform="translate(0,0)" fill="rgb(249,221,165)" d="M 513.658 1213.95 C 517.56 1222.74 524.065 1239.74 520.556 1249.01 C 519.577 1251.59 517.782 1253.46 515.166 1254.39 C 508.206 1256.88 499.052 1253.05 492.754 1250.06 C 462.837 1235.85 433.933 1203.56 422.974 1172.64 C 419.421 1162.62 414.399 1143.63 419.665 1133.57 C 420.923 1131.17 422.896 1129.5 425.541 1128.82 C 435.749 1126.22 448.729 1135.58 456.867 1140.83 L 457.756 1141.79 C 462.548 1146.93 468.695 1150.94 473.684 1155.97 C 489.826 1172.23 504.375 1192.98 513.658 1213.95 z"/>
<path transform="translate(0,0)" fill="rgb(75,78,77)" d="M 1424.16 188.31 A 1099.06 1099.06 0 0 0 1440.78 192.632 A 14082.3 14082.3 0 0 1 1440.95 376.53 L 1416.91 353.528 A 2357.77 2357.77 0 0 1 1377.92 316.68 C 1386.64 297.029 1393.31 276.061 1400.71 255.839 C 1408.85 233.634 1418.29 211.214 1424.16 188.31 z"/>
<path transform="translate(0,0)" fill="rgb(75,78,77)" d="M 111.8 188.403 C 117.341 194.007 154.719 298.32 160.684 314.68 A 3594.16 3594.16 0 0 0 120.988 352.265 A 1587.06 1587.06 0 0 0 95.0579 376.34 L 94.9403 192.709 C 100.755 191.677 106.186 190.234 111.8 188.403 z"/>
<path transform="translate(0,0)" fill="rgb(75,78,77)" d="M 94.1169 1676.39 C 98.8131 1678.79 103.428 1684.41 107.372 1688.12 C 117.074 1697.24 153.638 1734.83 163.209 1738.42 C 157.771 1754.88 150.135 1771.17 143.733 1787.33 C 138.408 1800.77 133.813 1816.76 126.651 1829.23 C 123.896 1841 117.66 1855.35 112.05 1866.06 C 107.67 1866.78 97.5992 1864.42 94.0425 1861.9 L 94.1169 1676.39 z"/>
<path transform="translate(0,0)" fill="rgb(75,78,77)" d="M 1438.91 1670.59 L 1440.2 1671.64 C 1442.81 1687.41 1441.09 1715.25 1441.09 1732.45 L 1441.05 1861.42 C 1440.83 1861.58 1440.63 1861.77 1440.39 1861.91 C 1436.42 1864.28 1426.36 1865.21 1422.04 1863.82 C 1417.27 1858.29 1411.91 1837.84 1409.99 1830.18 C 1407.32 1827.08 1374.8 1742.45 1373.07 1732.89 C 1374.81 1732.15 1435.46 1675.21 1438.91 1670.59 z"/>
<path transform="translate(0,0)" fill="rgb(75,78,77)" d="M 357.395 1021.88 C 357.595 1022.19 357.798 1022.5 357.995 1022.81 C 373.599 1047.74 386.486 1108.74 379.456 1137.37 C 378.078 1142.98 375.552 1149.53 370.213 1152.42 C 366.844 1154.25 363.234 1154.05 359.711 1152.76 C 340.644 1145.78 325.901 1123.1 317.692 1105.65 C 304.736 1078.12 290.535 1029.79 301.929 1000.62 C 304.341 994.446 308.554 988.305 314.933 985.796 C 319.923 983.833 324.065 985.102 328.719 987.228 C 339.506 993.097 353.219 1009.01 357.112 1020.71 C 357.238 1021.09 357.3 1021.49 357.395 1021.88 z"/>
<path transform="translate(0,0)" fill="rgb(249,221,165)" d="M 353.558 1024.02 C 366.441 1053.22 383.254 1105.51 374.318 1137.3 C 373.243 1141.13 371.404 1145.66 367.651 1147.55 C 365.336 1148.71 362.711 1148.65 360.297 1147.82 C 345.447 1142.75 332.022 1122.01 325.116 1108.91 C 310.033 1080.31 295.578 1035.9 305.891 1004.03 C 307.553 998.888 310.382 993.46 315.523 991.106 C 320.119 989.002 323.802 990.732 328.074 992.545 C 339.426 1001.37 346.277 1011.85 353.558 1024.02 z"/>
<path transform="translate(0,0)" fill="rgb(75,78,77)" d="M 367.757 753.05 C 373.722 752.687 378.577 753.317 383.329 757.219 C 392.361 764.637 395.489 778.152 396.794 789.186 C 402.021 833.399 381.249 905.387 353.307 940.19 C 345.931 949.377 338.593 955.051 326.625 956.385 C 324.76 955.743 322.771 955.101 321.027 954.174 C 310.049 948.338 303.473 934.075 299.909 922.831 C 287.778 884.559 298.68 837.854 317.02 803.069 C 327.843 782.541 344.729 760.213 367.757 753.05 z"/>
<path transform="translate(0,0)" fill="rgb(249,221,165)" d="M 367.383 758.081 C 372.577 757.656 376.37 757.722 380.513 761.316 C 389.368 768.999 391.505 783.99 392.188 794.993 C 394.71 835.667 374.231 909.559 346.862 940.229 C 340.867 946.948 335.218 950.815 326.026 951.305 C 316.455 946.248 310.35 935.504 306.628 925.71 C 293.168 890.285 301.96 848.028 317.237 814.52 C 327.319 792.405 343.647 766.903 367.383 758.081 z"/>
<path transform="translate(0,0)" fill="rgb(75,78,77)" d="M 904.444 1667.61 C 909.897 1671.16 915.064 1677.26 920.053 1681.63 C 927.694 1688.33 970.842 1725.62 977.538 1727.1 L 973.945 1706.03 C 976.673 1711.33 979.859 1714.87 984.313 1718.8 C 995.596 1728.77 1049.98 1767.14 1062.3 1766.39 C 1063.52 1774.01 1066.79 1782.09 1068.78 1789.62 C 1071.41 1799.57 1073.22 1809.93 1076.18 1819.76 C 1072.46 1818.12 1049.32 1787.59 1046.63 1782.38 C 1052.04 1811.16 1057.66 1823.17 1054.93 1854.44 C 1051.68 1852.72 1043.1 1840.06 1040.53 1836.45 L 1038.81 1836.16 C 1036.44 1839.69 1037.41 1850.46 1037.28 1854.91 C 1036.41 1884.51 1033.19 1917.13 1027.13 1946.19 C 1026.34 1946.7 1026.32 1946.77 1025.27 1947.1 C 1019.56 1948.9 958.82 1947.73 954.766 1945.72 C 956.92 1874.13 947.019 1805.38 926.925 1736.73 A 889.173 889.173 0 0 0 913.948 1696.04 C 910.794 1687.03 906.766 1677.78 904.635 1668.49 C 904.568 1668.2 904.507 1667.9 904.444 1667.61 z"/>
<path transform="translate(0,0)" fill="rgb(75,78,77)" d="M 656.582 500.442 C 661.29 500.16 666.065 500.193 670.782 500.214 C 782.885 500.718 890.578 549.948 968.842 629.11 C 1047.54 708.707 1095.35 825.64 1094.73 937.472 C 1090.28 930.05 1084.41 922.61 1081.12 914.633 C 1077.34 905.496 1074.05 870.977 1071.35 857.896 C 1049.09 749.957 982.166 645.468 889.672 584.783 C 796.024 523.34 687.971 503.389 578.524 526.226 C 469.288 549.02 372.863 620.555 312.311 713.307 C 250.584 807.86 231.354 920.75 254.568 1030.79 C 257.53 1047.88 263.743 1065.3 269.729 1081.53 A 457.898 457.898 0 0 0 423.068 1288.14 C 518.05 1359.11 618.384 1380.07 734.648 1363.12 L 737.754 1378.75 C 716.734 1381.66 695.65 1384.55 674.436 1385.52 C 559.661 1390.76 454.472 1342.13 371.215 1265.83 C 354.397 1250.42 339.845 1233.49 325.796 1215.55 C 268.976 1143 233.41 1056.02 229.447 963.494 A 440.877 440.877 0 0 1 346.832 641.538 C 359.674 627.605 373.949 615.371 388.401 603.162 C 466.994 536.762 554.146 504.494 656.582 500.442 z"/>
<path transform="translate(0,0)" fill="rgb(75,78,77)" d="M 654.165 620.333 C 661.923 619.802 668.944 621.263 676.185 623.972 C 690.702 629.404 704.55 638.035 717.952 645.799 C 746.192 662.159 773.73 679.763 801.421 697.029 A 380.145 380.145 0 0 1 833.433 698.911 C 853.464 701.038 877.738 705.893 894.841 716.759 C 911.233 727.175 927.349 748.401 940.12 763.203 A 2317.34 2317.34 0 0 1 1056.99 911.495 C 1072.86 933.866 1086.59 958.119 1103.82 979.466 C 1080.37 961.797 1059.58 940.598 1037.22 921.578 C 1045.78 933.138 1055.74 944.057 1065.01 955.08 C 1093.71 989.196 1123.24 1022 1156.6 1051.67 C 1138.59 1044.91 1121.42 1037.32 1104.25 1028.64 C 1122.44 1059.07 1145.2 1087.25 1165.02 1116.71 C 1139.25 1105.26 1113.83 1092.6 1088.36 1080.5 C 1095.51 1093.7 1104.58 1105.74 1111.58 1118.99 C 1091.59 1110.79 1071.44 1104.23 1049.48 1105.74 C 1022.33 1107.61 1000.96 1122.51 983.571 1142.51 C 945.152 1186.68 938.941 1253.57 942.845 1309.61 A 383.236 383.236 0 0 0 1073.41 1575.01 C 1083.96 1584.14 1106.59 1601.39 1120.96 1600.37 C 1119.48 1600 1118.25 1599.33 1117.09 1598.34 C 1104.41 1587.38 1092.52 1565.62 1091.74 1548.84 C 1078.04 1538.28 1061.81 1509.5 1054.42 1493.37 C 1049.97 1483.63 1046.57 1473.36 1041.62 1463.86 L 1041.09 1462.85 A 210.071 210.071 0 0 0 1045.02 1482.1 C 1049.53 1499.84 1069.52 1555.93 1084.08 1564.62 C 1081.47 1564.3 1080.05 1563.89 1078.08 1562.19 C 1060.1 1546.7 1045.11 1528.14 1031.23 1508.98 C 988.016 1449.32 963.224 1384.52 957.307 1310.99 C 953 1257.45 957.073 1193.26 993.727 1150.73 C 1008.49 1133.6 1027.86 1120.39 1050.97 1118.8 C 1108.62 1114.83 1164.12 1169.62 1204.38 1204.29 C 1192.9 1188.11 1177.98 1172.67 1163.43 1159.23 C 1147.62 1144.62 1132.1 1132.91 1120.71 1114.1 C 1136.3 1120.98 1152.29 1123.79 1168.18 1129.36 C 1173.79 1131.32 1177.79 1134.45 1181.84 1138.69 C 1189.42 1146.6 1195.95 1156.04 1202.65 1164.72 A 4977.7 4977.7 0 0 0 1235.97 1207.39 C 1279.45 1262.55 1323.72 1317.62 1362.37 1376.33 C 1381.73 1405.73 1400.17 1437.56 1415.44 1469.29 C 1359.85 1403.97 1296.71 1342.64 1224.57 1295.91 C 1246.49 1319.16 1256.46 1326.52 1272.74 1355.7 C 1239.28 1324.18 1204.49 1292.28 1164.12 1269.75 C 1179.99 1286.2 1201.58 1303.97 1218.72 1319.89 C 1255.3 1353.85 1291.86 1389.2 1325.43 1426.14 C 1311.98 1398.89 1294.08 1372.84 1275.92 1348.55 L 1276.81 1348.21 C 1294.43 1363.72 1311.2 1380.25 1328.11 1396.53 C 1346.98 1414.69 1366.07 1432.74 1383.53 1452.29 C 1403.46 1474.62 1421.3 1498.66 1440.81 1521.25 C 1441.64 1552.51 1440.71 1583.89 1439.95 1615.14 C 1435.51 1613.15 1384.44 1530.31 1376.62 1518.21 L 1375.16 1518.63 L 1375.9 1517.18 L 1375.03 1517.58 C 1381.03 1533.07 1431.97 1629.48 1440.71 1634.3 A 886.723 886.723 0 0 1 1440.52 1655.01 C 1437.49 1660.37 1424.56 1673.09 1418.86 1675.25 C 1407.34 1668.1 1338.57 1539.42 1321.31 1518.33 C 1330.05 1542.32 1342.78 1566.11 1354.71 1588.66 C 1366.48 1610.93 1378.28 1633.11 1390.48 1655.15 C 1395.62 1664.43 1401.27 1678.46 1408.55 1685.8 C 1408.32 1686.22 1408.09 1686.65 1407.84 1687.06 C 1404.78 1692.18 1381.92 1713.74 1376.36 1715.27 C 1371.91 1710.84 1360.9 1686.76 1357.03 1679.67 C 1324.95 1620.85 1291.98 1562.72 1263.69 1501.9 C 1265.73 1511.32 1268.99 1520.24 1272.26 1529.28 C 1280.31 1550.19 1288.88 1571.26 1297.99 1591.73 C 1305 1607.48 1349.49 1701.69 1356.01 1707.41 C 1355.66 1707.37 1355.3 1707.36 1354.95 1707.29 C 1347.89 1705.92 1333.9 1687.94 1328.48 1681.84 C 1290.92 1639.64 1257.29 1596.66 1228 1548.28 C 1216.5 1529.29 1207.6 1508.42 1195.64 1489.87 L 1194.92 1488.77 C 1203.21 1514.94 1216.78 1540.75 1229.8 1564.84 C 1253.39 1608.51 1283.38 1649.45 1315.93 1686.83 C 1320.58 1692.18 1327.96 1702.78 1334.6 1704.76 C 1332.01 1705.15 1330.54 1705.08 1328.1 1704.08 C 1257.36 1674.94 1202.71 1601.1 1167.97 1535.76 A 649.587 649.587 0 0 1 1151.16 1501.12 C 1147.44 1492.91 1144.23 1483.85 1139.13 1476.43 L 1138.51 1475.55 C 1158.65 1554.06 1209.85 1643.18 1276.5 1691.14 C 1289.34 1700.37 1348.46 1733.22 1361.01 1731.18 C 1359.51 1734.26 1296.34 1797.82 1291.89 1799.74 C 1287.29 1794.11 1283.51 1786.12 1279.89 1779.74 C 1258.73 1742.37 1248.26 1704.77 1241.88 1662.63 C 1240.68 1662.6 1239.86 1662.42 1238.79 1661.83 C 1229.28 1656.6 1220.24 1650.09 1211.26 1644.01 C 1197.81 1634.91 1184.7 1625.75 1172.62 1614.85 C 1118.42 1565.94 1085.86 1496.9 1064.56 1428.23 C 1060.37 1414.71 1057.6 1400.8 1053.86 1387.15 C 1052.11 1442.39 1073 1513.06 1103.57 1559.2 C 1129.11 1597.74 1162.91 1626.72 1200.29 1653.14 C 1207.74 1658.41 1218.64 1667.25 1227.64 1669.08 C 1229.09 1688.67 1237.83 1737.35 1250.62 1752.2 C 1250.32 1752.23 1250.02 1752.3 1249.72 1752.3 C 1245.73 1752.33 1221.92 1740.3 1218.26 1737.12 C 1221.99 1747.4 1228.51 1756.79 1232.36 1767.21 C 1239.28 1785.89 1240.66 1805.37 1244.64 1824.68 C 1241.27 1823.19 1218.28 1792.03 1215.68 1787.23 C 1210.89 1817.59 1210.65 1847.84 1209.9 1878.47 C 1206.18 1885.29 1147.96 1938.5 1138.86 1946.2 C 1136.27 1946.77 1134.5 1946.99 1131.88 1946.51 C 1128.6 1932.6 1128.68 1917.1 1126.88 1902.85 C 1124.23 1881.76 1119.92 1860.73 1115.32 1839.98 C 1102.35 1781.6 1081.48 1725.03 1064.06 1667.88 C 1057.54 1646.5 1051.3 1624.89 1045.68 1603.25 C 1043.03 1593.06 1041.34 1582.49 1038.09 1572.49 L 1037.74 1571.44 L 1037.77 1572.31 C 1038.87 1598.35 1067.04 1743.92 1078.93 1759.69 C 1077.81 1759.68 1076.76 1759.53 1075.67 1759.29 C 1069.95 1758.05 1062.44 1752.11 1057.14 1748.97 C 1024.41 1729.65 1000.29 1713.59 971.719 1687.94 C 965.543 1682.39 958.194 1676.81 953.594 1669.87 C 955.134 1678.08 957.739 1686.12 960.058 1694.13 C 958.466 1694.05 958.863 1694.23 957.56 1693.65 C 951.889 1691.13 944.461 1683.12 939.518 1679.04 C 887.769 1636.31 853.321 1577.94 827.772 1516.65 C 823.407 1528.01 822.016 1539.9 819.492 1551.7 C 806.449 1535.04 794.411 1470.3 791.336 1448.95 C 790.245 1441.37 789.976 1424.63 786.607 1418.42 L 785.308 1418.17 C 776.154 1430.45 778.523 1473.67 777.336 1489.19 C 771.813 1476.02 767.26 1448.07 763.856 1433.1 A 7810.86 7810.86 0 0 1 741.844 1332.01 C 733.965 1294.95 725.587 1257.88 723.525 1219.94 C 721.875 1189.57 726.238 1160.36 729.511 1130.3 C 706.015 1150.54 696.143 1183.89 688.516 1212.83 A 192.607 192.607 0 0 1 708.129 1105.29 C 715.431 1090.65 724.049 1076.78 730.821 1061.86 C 719.798 1070 710.403 1076.78 696.071 1075.59 C 696.999 1071.36 706.417 1063.23 709.563 1059.33 C 719.519 1047.01 727.18 1033.93 733.673 1019.51 C 718.819 1030.55 707.617 1036.35 688.943 1037.21 A 137.399 137.399 0 0 0 699.855 1028.63 C 723.165 1008.12 732.839 977.859 734.694 947.667 C 738.495 885.809 706.192 832.172 665.396 788.309 C 652.513 774.457 638.191 762.09 625.643 747.889 L 716.289 806.31 C 728.359 813.93 740.525 823.293 753.399 829.391 C 758.211 831.67 763.622 833.275 768.995 833.139 C 775.508 832.974 781.094 830.175 785.505 825.457 C 789.205 821.5 791.083 816.713 790.595 811.272 C 788.153 784.062 738.923 755.041 718.093 740.21 C 708.201 733.167 698.444 725.657 689.363 717.587 C 672.915 702.968 659.218 683.772 642.055 670.303 C 636.579 666.007 630.029 662.523 622.832 663.663 C 613.978 665.067 608.491 672.799 603.466 679.416 L 602.731 678.82 C 603.908 666.194 608.144 651.871 615.935 641.721 C 625.566 629.174 638.729 622.508 654.165 620.333 z"/>
<path transform="translate(0,0)" fill="rgb(249,221,165)" d="M 833.761 743.029 C 834.892 743.05 836.022 743.078 837.149 743.18 C 841.599 743.583 846.326 745.67 849.097 749.279 C 850.689 751.352 851.377 753.647 850.845 756.237 C 849.934 760.676 846.361 762.596 842.801 764.728 C 840.124 765.042 836.42 765.464 833.79 764.735 C 830.868 763.925 828.084 761.345 826.661 758.731 C 825.362 756.346 825.14 753.883 825.943 751.29 C 827.223 747.157 830.171 745.076 833.761 743.029 z"/>
<path transform="translate(0,0)" fill="rgb(249,221,165)" d="M 852.466 1414.72 C 853.826 1420.29 849.822 1437.3 849.195 1444.01 A 113.299 113.299 0 0 0 852.879 1486.09 C 855.371 1475.76 858.218 1466.22 863.137 1456.76 C 860.012 1470.32 857.64 1483.37 857.053 1497.32 C 857.251 1506.37 858.614 1515.2 859.91 1524.15 L 859.608 1523.53 C 843.061 1488.97 839.813 1451.06 852.466 1414.72 z"/>
<path transform="translate(0,0)" fill="rgb(249,221,165)" d="M 888.049 1523.76 C 891.709 1526.45 910.551 1584.79 921.542 1592.49 C 919.759 1581.79 917.111 1568.36 920.046 1557.75 C 922.139 1561.71 922.434 1586.53 926.963 1596.57 C 927.055 1596.77 927.155 1596.97 927.252 1597.18 C 928.861 1605.36 934.462 1619.4 940.189 1625.36 C 938.93 1624.9 937.643 1624.23 936.624 1623.34 C 933.119 1620.31 929.921 1615.24 927.182 1611.46 C 909.465 1587 892.136 1553.93 888.049 1523.76 z"/>
<path transform="translate(0,0)" fill="rgb(249,221,165)" d="M 857.61 1164.93 C 857.584 1179.76 826.545 1209.55 817.281 1222.11 A 82.4348 82.4348 0 0 0 806.427 1241.7 C 801.622 1254.32 801.019 1266.97 800.716 1280.28 C 793.901 1262.64 783.722 1240.01 785.456 1220.8 L 786.477 1221.34 C 789.276 1232.09 792.85 1242.71 796.126 1253.33 C 806.508 1222.31 810.868 1212.13 811.518 1178.35 C 813.884 1191.12 814.168 1202.92 813.838 1215.83 C 821.749 1206.02 831.516 1197.67 840.078 1188.41 C 846.801 1181.14 852.207 1173.18 857.61 1164.93 z"/>
<path transform="translate(0,0)" fill="rgb(249,221,165)" d="M 784.573 716.836 C 788.001 716.993 840.475 731.436 846.988 733.731 C 852.467 735.661 857.474 738.178 861.717 742.201 C 875.652 755.415 905.983 806.907 914.772 825.605 C 895.039 800.886 878.558 773.023 857.865 749.191 C 856.313 747.702 854.718 746.125 852.976 744.859 C 846.93 740.466 810.951 730.779 803.257 731.753 C 810.574 741.062 811.168 753.329 818.581 762.727 C 829.758 776.895 848.401 774.103 864.046 778.741 C 869.678 780.411 874.799 783.707 879.821 786.687 C 867.679 784.801 855.163 785.428 843.135 783.008 C 809.952 776.331 811.785 755.28 796.768 731.108 C 793.471 725.802 788.888 721.317 784.573 716.836 z"/>
<path transform="translate(0,0)" fill="rgb(249,221,165)" d="M 926.767 1130.97 C 927.484 1142.8 925.585 1155.69 923.911 1167.39 C 917.057 1215.29 902.026 1259.07 883.179 1303.42 C 882.731 1287.16 880.851 1270.97 879.312 1254.78 C 867.145 1301.6 844.972 1347.06 816.902 1386.36 C 811.279 1394.23 805.412 1402.76 798.544 1409.6 C 803.727 1392.57 806.375 1376.47 807.89 1358.77 L 807.908 1358 C 808.146 1343.3 806.146 1328.98 805.358 1314.33 C 812.114 1337.36 814.653 1358.14 812.621 1382.17 C 845.243 1333.23 863.801 1280.56 879.688 1224.43 C 883.086 1238.28 886.683 1252.12 888.709 1266.24 C 895.755 1246.9 904.604 1228.28 910.047 1208.37 A 784.673 784.673 0 0 0 921.027 1160.66 C 922.857 1151.12 924.093 1141.34 926.51 1131.94 L 926.767 1130.97 z"/>
<path transform="translate(0,0)" fill="rgb(249,221,165)" d="M 946.909 835.811 C 952.552 844.055 956.648 854.275 961.595 863.037 C 977.077 890.46 994.968 909.275 1019.81 928.513 C 1005.32 930.708 990.923 931.587 976.283 931.816 C 983.147 940.73 987.891 950.674 992.614 960.823 C 1007.72 993.286 1015.26 1025.2 1014.77 1061.15 C 1001.78 1047.68 988.789 1034.56 977.587 1019.51 C 986.294 1050.04 979.645 1083.72 964.967 1111.24 C 957.779 1066.48 939.935 1031.32 908.26 999.097 C 911.256 1007.75 912.711 1014.99 911.942 1024.23 C 908.743 1062.71 884.274 1092.18 855.942 1115.88 C 860.186 1096.06 861.522 1075.75 863.42 1055.61 C 845.393 1096.38 812.949 1135.67 776.799 1161.93 C 799.202 1135.99 808.777 1106.12 813.034 1072.61 C 816.12 1089.27 811.988 1107 807.949 1123.16 C 833.874 1094.05 856.837 1065.85 865.685 1027.06 C 870.908 1049.06 870.703 1071.21 868.117 1093.52 C 875.843 1083.75 883.651 1073.96 889.724 1063.05 C 900.926 1042.92 910.104 1015.23 903.495 992.324 C 930.702 1008.35 944.851 1022.71 958.397 1051.5 C 962.369 1060.67 965.437 1070.24 968.717 1079.67 C 970.451 1070.11 972.052 1060.52 972.805 1050.82 C 974.807 1025.07 972.664 1008.31 955.87 988.584 C 974.357 1001.34 989.51 1019.26 1004.65 1035.65 C 1002.21 999.281 988.891 961.181 969.802 930.251 C 954.597 929.628 940.156 926.329 925.78 921.5 C 934.948 932.575 942.849 945.179 950.028 957.616 A 153.355 153.355 0 0 1 939.796 957.301 C 915.314 955.762 890.917 946.285 874.635 927.653 C 875.978 949.956 879.791 970.44 884.92 992.124 C 861.968 980.166 845.725 961.779 831.6 940.597 C 829.789 962.933 821.547 984.472 814.693 1005.66 C 800.851 978.118 789.375 947.755 789.136 916.488 A 361.174 361.174 0 0 0 812.248 979.135 C 816.385 963.65 824.608 943.109 822.568 927.09 C 821.018 914.919 817.695 903.308 817.228 890.947 C 828.519 919.949 841.116 945.658 866.773 964.896 C 863.267 937.657 864.817 920.713 854.111 893.781 C 874.553 920.709 897.494 936.922 930.468 944.912 C 921.527 925.499 908.125 908.071 899.626 888.34 C 902.333 892.145 905.094 896.038 908.477 899.28 C 928.749 918.7 966.795 920.706 993.605 920.521 C 972.665 899.291 952.081 865.479 946.909 835.811 z"/>
<path transform="translate(0,0)" fill="rgb(75,78,77)" d="M 400.965 102.917 L 1133.63 103.002 C 1163.43 126.906 1193.15 158.156 1221.87 184.283 A 7768.22 7768.22 0 0 1 1392.92 344.471 C 1408.79 359.6 1425.46 373.897 1441.12 389.242 L 1441.15 1066.26 L 1441.28 1342.56 C 1441.26 1392.81 1441.82 1443.18 1440.71 1493.42 C 1417.15 1427.29 1366.08 1354.55 1323.71 1298.11 C 1312.42 1283.08 1301.36 1267.03 1288.84 1253 C 1383.81 1094.73 1412.7 884.456 1368.23 706.18 C 1358.16 665.815 1346.31 624.921 1327.43 587.781 C 1326.68 591.285 1332.46 601.951 1334.07 605.718 C 1341.91 624.031 1348.13 643.427 1353.25 662.694 C 1397.94 830.784 1389.98 986.842 1326.77 1148.95 C 1319.49 1167.6 1311.16 1186.32 1302.17 1204.21 C 1295.54 1217.42 1287.9 1230.36 1282.13 1243.96 A 7176.2 7176.2 0 0 1 1198.64 1137.47 C 1219.3 1097.14 1237.83 1055.03 1251.11 1011.65 A 661.071 661.071 0 0 0 1249.36 623.156 A 631.329 631.329 0 0 0 1129.73 406.269 C 1119.42 394.09 1107.74 379.272 1095.19 369.4 C 1095.09 369.252 1095.01 369.091 1094.9 368.954 C 1085.29 357.451 1002.19 287.068 992.916 286.205 C 998.981 293.933 1019.97 308.131 1028.6 315.481 A 1214.64 1214.64 0 0 1 1085.66 367.993 C 1094.53 378.937 1104.73 388.849 1113.9 399.56 C 1128.6 416.726 1142.29 435.28 1155.11 453.89 A 639.717 639.717 0 0 1 1266 884.5 A 660.433 660.433 0 0 1 1210.39 1089.52 C 1204.51 1102.55 1198.63 1115.85 1191.54 1128.27 A 1600.5 1600.5 0 0 1 1143.68 1062.1 C 1161.53 1066.91 1179.91 1069.32 1197.69 1074.43 C 1171.52 1046.55 1141.43 1020.53 1117.79 990.462 C 1119.96 944.662 1118.76 899.909 1110.2 854.697 C 1094.06 769.444 1049.15 686.225 991.012 622.389 A 443.532 443.532 0 0 0 683.769 479.044 C 563.182 473.52 447.662 519.081 359.035 600.121 A 460.091 460.091 0 0 0 208.324 920.739 A 470.081 470.081 0 0 0 334.907 1260.06 C 412.709 1344.72 522.758 1401.3 638.503 1405.95 C 672.595 1407.31 707.755 1405.64 740.95 1397.32 C 744.59 1417.82 749.511 1438.1 754.225 1458.38 C 757.15 1470.96 759.589 1484.11 763.505 1496.41 C 621.312 1535.87 457.016 1504.05 329.927 1432.27 A 677.331 677.331 0 0 1 168.241 1304.01 C 161.774 1297.01 124.984 1250.3 122.018 1248.43 C 134.649 1271.55 153.413 1294.37 170.782 1314.12 A 628.022 628.022 0 0 0 466.876 1499.95 C 545.863 1523.2 632.964 1530.73 714.504 1519.07 C 731.237 1516.68 747.128 1511.37 763.629 1508.51 C 768.273 1507.7 769.546 1511.4 773.723 1510.6 C 777.97 1507.16 781.456 1503.12 785.486 1499.48 C 794.174 1529.45 802.598 1563.89 823.088 1588.32 C 825.423 1591.11 827.995 1594.73 831.299 1596.38 C 832.017 1596.74 832.089 1596.73 832.751 1596.92 C 831.53 1584.38 831.459 1571.66 831.296 1559.06 C 836.471 1577.87 850.671 1596.89 861.979 1612.53 C 865.995 1618.08 870.75 1623.74 874.059 1629.71 C 877.829 1636.51 881.897 1653.24 886.752 1657.91 C 881.091 1663.18 861.903 1666.62 853.565 1668.88 C 794.566 1684.87 735.66 1696.48 674.655 1701.01 C 659.256 1702.15 643.436 1703.58 628.008 1702.94 C 615.139 1702.41 599.948 1697.63 591.17 1687.73 C 578.994 1674 578.686 1651.78 576.956 1634.47 C 575.249 1651.26 574.914 1677.75 561.043 1689.44 C 549.747 1698.96 535.297 1702.05 520.963 1700.38 C 505.299 1698.57 489.606 1694.77 474.218 1691.35 A 937.771 937.771 0 0 1 300.121 1634.58 C 288.787 1629.61 273.673 1624.31 264.374 1615.99 C 274.129 1634.9 380.942 1673.8 403.271 1680.93 A 735.531 735.531 0 0 0 477.602 1700.96 C 500.332 1705.89 526.203 1708.05 547.454 1717.42 C 556.393 1721.36 563.133 1726.24 567.705 1735.07 C 574.479 1748.15 572.601 1762.1 576.846 1775.47 C 580.661 1757.22 580.17 1732.68 597.748 1721.28 C 604.744 1716.75 613.708 1713.61 621.938 1712.41 C 645.206 1709 671.211 1710.76 695.092 1708.63 C 748.822 1703.83 800.698 1693.02 852.686 1678.92 C 862.842 1676.16 882.478 1672.67 890.143 1666.61 C 890.216 1666.91 890.285 1667.21 890.36 1667.51 C 894.078 1682.09 900.977 1696.12 905.243 1710.67 C 927.916 1788 946.083 1864.56 939.832 1945.88 C 930.218 1949.61 728.169 1947.78 698.673 1947.78 C 601.237 1947.76 503.615 1949.11 406.2 1947.64 C 404.382 1947.61 402.45 1947.46 400.803 1946.62 C 400.597 1946.52 400.415 1946.37 400.221 1946.25 C 395.247 1944.69 353.101 1903.36 344.938 1895.88 L 172.151 1735.87 C 159.859 1724.51 99.8499 1671.68 94.9294 1662.83 C 94.5582 1662.16 94.4588 1661.9 94.1758 1661.26 L 95.0787 390.055 C 195.397 292.57 299.331 198.986 400.965 102.917 z"/>
<path transform="translate(0,0)" fill="rgb(249,221,165)" d="M 500.424 1413.69 C 504.018 1430.69 490.775 1449.54 483.502 1464.26 C 483.47 1463.94 483.41 1463.62 483.405 1463.29 C 483.142 1448.11 490.078 1424.98 500.424 1413.69 z"/>
<path transform="translate(0,0)" fill="rgb(249,221,165)" d="M 550.195 1427.59 L 551.534 1429.61 C 553.875 1445.13 544.387 1463.55 538.27 1477.49 L 537.555 1476.85 C 537.839 1461.18 538.97 1439.7 550.195 1427.59 z"/>
<path transform="translate(0,0)" fill="rgb(249,221,165)" d="M 452.941 1392.64 L 454.421 1394.63 C 454.652 1410.69 440.445 1427.97 431.6 1440.47 L 431.064 1440.66 L 430.529 1439.71 C 435.879 1421.81 440.78 1407.29 452.941 1392.64 z"/>
<path transform="translate(0,0)" fill="rgb(249,221,165)" d="M 588.068 393.73 C 592.968 401.37 600.023 428.937 600.729 438.458 C 601.048 442.765 600.256 446.86 599.396 451.061 C 598.64 451.463 599.205 451.234 597.567 451.087 C 588.294 433.592 589.577 413.035 588.068 393.73 z"/>
<path transform="translate(0,0)" fill="rgb(249,221,165)" d="M 1052.96 437.824 C 1053.32 437.831 1053.68 437.833 1054.04 437.846 C 1057.78 437.984 1061.1 438.948 1063.59 441.944 C 1065.53 444.277 1066.17 446.973 1065.69 449.944 C 1064.96 454.407 1062.48 456.463 1059.04 459.119 C 1057.58 459.181 1056.07 459.238 1054.61 459.071 C 1052.01 458.774 1049.84 457.256 1048.29 455.18 C 1046.38 452.622 1045.87 449.904 1046.42 446.791 C 1047.22 442.214 1049.24 440.387 1052.96 437.824 z"/>
<path transform="translate(0,0)" fill="rgb(249,221,165)" d="M 1022.78 530.947 C 1022.83 531.768 1022.92 532.15 1022.61 533.022 C 1021.6 535.9 1018.98 539.297 1017.36 541.929 C 1009.52 554.68 1001.78 565.431 988.448 572.686 C 988.266 572.024 988.208 571.95 988.209 571.152 C 988.227 556.923 1012.93 540.009 1022.78 530.947 z"/>
<path transform="translate(0,0)" fill="rgb(249,221,165)" d="M 599.365 1439.66 C 600.027 1440.28 600.56 1440.97 600.976 1441.78 C 607.215 1453.84 598.768 1478.09 594.812 1490.43 L 593.542 1490.3 C 589.179 1473.45 592.89 1455.34 599.365 1439.66 z"/>
<path transform="translate(0,0)" fill="rgb(249,221,165)" d="M 528.969 404.783 C 531.519 408.456 533.249 413.188 535.143 417.242 C 542.271 432.501 548.013 445.673 547.611 462.849 C 546.306 462.538 546.598 462.746 545.47 461.873 C 536.449 454.891 530.646 416.7 528.969 404.783 z"/>
<path transform="translate(0,0)" fill="rgb(249,221,165)" d="M 470.523 423.605 C 471.208 424.123 471.319 424.162 471.967 424.918 C 481.957 436.562 494.318 463.988 493.921 479.208 C 479.737 467.078 475.393 440.793 470.523 423.605 z"/>
<path transform="translate(0,0)" fill="rgb(249,221,165)" d="M 406.828 1369.73 C 407.86 1370.87 408.904 1371.55 409.063 1373.14 C 410.068 1383.25 388.923 1406.78 382.062 1415.28 L 381.398 1415.6 L 381.168 1414.08 C 387.463 1396.79 393.143 1382.71 406.828 1369.73 z"/>
<path transform="translate(0,0)" fill="rgb(249,221,165)" d="M 647.308 385.764 C 647.476 386.002 647.668 386.225 647.811 386.479 C 649.516 389.503 649.935 394.469 650.639 397.882 C 653.905 413.731 657.242 430.38 652.244 446.168 L 651.07 446.59 C 642.301 436.994 647.287 398.956 647.308 385.764 z"/>
<path transform="translate(0,0)" fill="rgb(249,221,165)" d="M 1171.84 824.389 C 1179.77 824.05 1187.95 824.892 1195.88 825.295 C 1186.38 829.627 1176.94 833.046 1166.79 835.468 C 1158.57 836.527 1150.61 835.453 1142.45 834.417 C 1152.18 829.018 1160.69 825.464 1171.84 824.389 z"/>
<path transform="translate(0,0)" fill="rgb(249,221,165)" d="M 413.633 443.683 C 424.602 454.572 445.715 485.006 446.213 500.087 C 430.663 491.394 421.214 459.498 413.633 443.683 z"/>
<path transform="translate(0,0)" fill="rgb(249,221,165)" d="M 1131.03 663.201 L 1131.24 663.343 L 1131.15 664.47 C 1116.58 677.273 1107.49 685.472 1087.91 689.587 L 1087.5 689.159 C 1087.62 688.224 1087.59 687.927 1088.09 686.975 C 1095.07 673.662 1118.08 667.59 1131.03 663.201 z"/>
<path transform="translate(0,0)" fill="rgb(249,221,165)" d="M 929.511 463.76 C 929.668 464.44 929.807 465.213 929.763 465.916 C 929.208 474.684 917.609 495.929 912.408 502.65 C 909.903 505.887 906.843 508.433 903.671 510.986 C 903.633 510.773 903.581 510.562 903.557 510.347 C 901.577 493.169 919.396 475.978 929.511 463.76 z"/>
<path transform="translate(0,0)" fill="rgb(249,221,165)" d="M 824.563 411.705 C 824.608 411.923 824.662 412.14 824.698 412.36 C 827.165 427.396 815.343 457.782 807.28 469.916 C 803.387 447.476 817.663 432.037 824.563 411.705 z"/>
<path transform="translate(0,0)" fill="rgb(249,221,165)" d="M 976.776 492.836 C 976.868 493.699 976.966 494.082 976.737 495.026 C 975.942 498.304 973.779 502.088 972.389 505.197 C 966.185 519.068 960.261 529.913 947.536 538.629 C 947.454 538.129 947.341 537.632 947.289 537.128 C 945.739 521.962 967.398 503.439 976.776 492.836 z"/>
<path transform="translate(0,0)" fill="rgb(249,221,165)" d="M 1171.38 769.392 C 1173.46 769.021 1175.49 769.108 1177.6 769.111 L 1178.04 769.771 C 1167.97 778.195 1150.01 783.356 1137.24 784.611 L 1127.17 784.521 C 1141.49 773.125 1153.64 771.261 1171.38 769.392 z"/>
<path transform="translate(0,0)" fill="rgb(249,221,165)" d="M 651.837 1440.46 C 652.598 1441.05 652.716 1441.07 653.378 1441.97 C 662.286 1454.11 656.854 1480.88 653.39 1494.17 C 653.194 1493.92 652.969 1493.69 652.802 1493.41 C 645.761 1481.96 648.748 1453.01 651.837 1440.46 z"/>
<path transform="translate(0,0)" fill="rgb(249,221,165)" d="M 198.613 651.64 C 210.424 655.773 224.074 661.246 234.888 667.517 C 240.377 670.7 246.292 674.823 248.007 681.269 C 247.133 681.569 246.906 681.716 245.851 681.686 C 230.912 681.258 209.783 661.129 198.613 651.64 z"/>
<path transform="translate(0,0)" fill="rgb(249,221,165)" d="M 878.527 433.778 C 878.576 434.018 878.653 434.254 878.676 434.498 C 879.282 441.119 868.874 468.651 865.602 474.729 C 863.203 479.185 859.77 483.315 856.683 487.324 C 856.55 486.882 856.382 486.449 856.284 485.997 C 852.273 467.607 869.735 448.601 878.527 433.778 z"/>
<path transform="translate(0,0)" fill="rgb(249,221,165)" d="M 767.38 397.707 C 767.488 398.175 767.684 398.95 767.748 399.465 C 768.243 403.435 767.62 407.903 767.479 411.939 C 766.906 428.297 766.041 442.858 756.392 456.608 C 750.971 438.097 761.62 415.183 767.38 397.707 z"/>
<path transform="translate(0,0)" fill="rgb(249,221,165)" d="M 167.023 701.996 A 140.198 140.198 0 0 1 171.499 703.233 C 187.06 707.84 213.566 713.435 221.701 728.415 C 202.987 729.638 182.048 711.635 167.023 701.996 z"/>
<path transform="translate(0,0)" fill="rgb(249,221,165)" d="M 1154.08 715.278 L 1156.8 715.199 L 1156.77 716.293 A 81.2179 81.2179 0 0 1 1116.02 735.313 C 1114.72 735.2 1113.4 734.926 1112.11 734.724 L 1112.34 733.361 C 1123.65 720.151 1137.83 718.439 1154.08 715.278 z"/>
<path transform="translate(0,0)" fill="rgb(249,221,165)" d="M 708.38 387.722 C 710.101 398.168 710.932 409.489 711.103 420.097 C 711.235 428.305 711.14 442.147 704.996 448.477 C 696.591 431.06 704.998 405.9 708.38 387.722 z"/>
<path transform="translate(0,0)" fill="rgb(249,221,165)" d="M 364.81 1339.78 C 366.349 1341.23 367.212 1342.04 367.965 1344.07 C 364.82 1357.99 347.326 1371.13 337.155 1380.27 L 335.858 1381.44 L 335.652 1380.21 C 343.108 1363.68 351.19 1351.67 364.81 1339.78 z"/>
<path transform="translate(0,0)" fill="rgb(249,221,165)" d="M 1162.55 984.444 C 1163.68 984.304 1164.75 984.29 1165.9 984.315 C 1175.28 984.525 1192.71 988.525 1199.18 995.413 L 1198.9 996.64 L 1193.68 997.029 C 1175.5 997.352 1165.67 994.385 1150.08 985.417 L 1162.55 984.444 z"/>
<path transform="translate(0,0)" fill="rgb(249,221,165)" d="M 267.936 554.608 C 269.584 555.261 269.034 554.963 270.564 555.898 C 283.984 564.1 309.351 583.428 313.264 598.641 C 295.326 594.587 279.609 567.932 267.936 554.608 z"/>
<path transform="translate(0,0)" fill="rgb(249,221,165)" d="M 1168.1 880.175 C 1180.15 879.169 1192.04 881.435 1203.79 883.815 L 1185.53 889.363 C 1172.39 891.711 1162.22 889.702 1149.49 886.404 C 1155.64 883.807 1161.64 881.823 1168.1 880.175 z"/>
<path transform="translate(0,0)" fill="rgb(249,221,165)" d="M 1102.72 612.98 L 1103.39 613.507 C 1103.31 613.739 1103.26 613.982 1103.15 614.203 C 1100.98 618.717 1076.09 638.864 1070.97 641.837 C 1067.28 643.978 1063.32 645.098 1059.24 646.222 L 1058.43 645.33 C 1058.48 644.331 1058.42 644.292 1058.81 643.185 C 1063.18 630.683 1091.29 618.571 1102.72 612.98 z"/>
<path transform="translate(0,0)" fill="rgb(249,221,165)" d="M 230.84 1185.07 C 232.151 1185.61 232.887 1185.88 233.79 1187.04 C 234.697 1188.2 234.161 1188.84 233.916 1190.19 C 224.858 1201.15 202.033 1207.62 188.828 1213.08 L 186.955 1213.59 C 187.111 1213.21 187.187 1212.79 187.422 1212.45 C 188.74 1210.55 192.18 1208.4 194.014 1206.88 C 205.579 1197.32 216.104 1189.08 230.84 1185.07 z"/>
<path transform="translate(0,0)" fill="rgb(249,221,165)" d="M 173.855 1036.41 C 174.785 1036.41 175.704 1036.42 176.631 1036.51 C 179.274 1036.75 181.502 1036.44 183.218 1038.52 L 182.56 1040.22 C 168.837 1050.05 151.862 1048.81 135.779 1049.06 L 128.989 1049.92 C 136.935 1042.95 163.598 1037.07 173.855 1036.41 z"/>
<path transform="translate(0,0)" fill="rgb(249,221,165)" d="M 146.674 758.884 C 157.816 760.571 169.457 762.634 180.337 765.588 C 188.103 767.697 199.109 771.517 203.33 778.856 C 181.658 779.82 164.883 768.874 146.674 758.884 z"/>
<path transform="translate(0,0)" fill="rgb(249,221,165)" d="M 308.85 508.615 C 309.124 508.736 309.41 508.834 309.672 508.979 C 315.632 512.275 345.443 542.382 349.52 548.379 C 352.064 552.121 353.328 556.018 354.552 560.339 C 335.847 553.627 321.567 524.071 308.85 508.615 z"/>
<path transform="translate(0,0)" fill="rgb(249,221,165)" d="M 1064.99 569.095 L 1065.48 570.48 C 1054.25 585.53 1044.14 598.879 1027.3 608.042 L 1026.51 607.282 C 1026.43 606.325 1026.36 605.525 1026.6 604.58 C 1030.39 589.506 1052.8 577.332 1064.99 569.095 z"/>
<path transform="translate(0,0)" fill="rgb(249,221,165)" d="M 204.875 1139.19 C 207.544 1138.92 209.503 1138.58 211.974 1139.76 C 212.057 1141.38 212.325 1141.76 211.441 1143.22 C 205.999 1152.2 178.691 1158.14 168.761 1160.75 C 166.516 1161.55 164.684 1162.62 162.31 1162.24 C 170.856 1153.66 193.149 1141.75 204.875 1139.19 z"/>
<path transform="translate(0,0)" fill="rgb(249,221,165)" d="M 1171.06 932.348 C 1183.67 931.277 1196.12 936.15 1207.83 940.236 C 1201.95 941.358 1195.98 942.109 1190.05 942.967 C 1175.65 943.69 1164.62 940.785 1151.09 936.312 C 1157.72 934.733 1164.33 933.457 1171.06 932.348 z"/>
<path transform="translate(0,0)" fill="rgb(249,221,165)" d="M 228.84 599.916 C 233.832 601.975 264.769 620.992 268.912 624.691 C 272.711 628.082 276.664 632.173 276.965 637.488 L 274.965 637.851 C 256.038 631.472 242.093 614.092 228.84 599.916 z"/>
<path transform="translate(0,0)" fill="rgb(249,221,165)" d="M 139.303 928.354 C 147.045 927.3 158.463 927.176 165.993 929.304 C 168.297 929.955 169.255 930.211 170.415 932.332 C 170.252 932.599 170.125 932.893 169.925 933.134 C 165.889 938.005 154.426 937.659 148.563 937.911 C 137.142 936.467 125.787 934.399 114.445 932.446 A 541.598 541.598 0 0 1 139.303 928.354 z"/>
<path transform="translate(0,0)" fill="rgb(249,221,165)" d="M 361.471 475.703 C 361.973 476.073 362.174 476.2 362.672 476.687 C 373.956 487.72 397.025 512.853 397.797 528.636 C 396.328 528.626 396.574 528.761 395.254 528.268 C 383.582 523.901 367.462 487.122 361.471 475.703 z"/>
<path transform="translate(0,0)" fill="rgb(249,221,165)" d="M 189.65 1088.36 C 191.638 1088.13 192.906 1088.64 194.782 1089.2 L 195.495 1090.84 C 195.321 1091.17 195.164 1091.51 194.972 1091.83 C 189.639 1100.72 155.322 1105.38 144.5 1107.81 C 142.344 1108.34 140.683 1108.56 138.465 1108.52 C 147.984 1100.77 176.923 1089.96 189.65 1088.36 z"/>
<path transform="translate(0,0)" fill="rgb(249,221,165)" d="M 153.652 983.329 C 158.329 982.878 163.342 982.308 168.018 983.02 C 170.651 983.421 173.457 984.081 175.142 986.268 L 173.871 988.003 C 164.403 992.569 153.28 993.884 142.882 993.351 L 112.427 991.135 C 126.383 989.849 139.772 985.302 153.652 983.329 z"/>
<path transform="translate(0,0)" fill="rgb(249,221,165)" d="M 328.09 1306.84 C 329.71 1307.75 329.874 1307.68 330.539 1309.39 C 325.962 1325.45 301.739 1335.76 290.723 1347.3 L 289.881 1348.2 L 288.756 1348.52 C 297.384 1332.37 311.302 1314.56 328.09 1306.84 z"/>
<path transform="translate(0,0)" fill="rgb(249,221,165)" d="M 291.554 1266.24 L 293.47 1270.26 C 291.859 1283.22 261.162 1298.22 251.571 1306.62 L 250.641 1307.44 L 249.774 1307.65 L 249.514 1306.69 C 264.323 1289.92 271.937 1278.37 291.554 1266.24 z"/>
<path transform="translate(0,0)" fill="rgb(249,221,165)" d="M 129.163 815.142 C 141.411 814.877 155.969 816.155 167.955 818.707 C 174.677 820.138 184.69 823.262 188.614 829.282 C 169.933 835.211 146.013 821.974 129.163 815.142 z"/>
<path transform="translate(0,0)" fill="rgb(249,221,165)" d="M 139.653 871.443 C 149.065 870.715 162.648 871.064 171.275 875.282 C 173.573 876.405 174.654 877.197 175.538 879.527 C 172.053 882.866 161.169 882.257 156.452 882.396 C 142.976 881.973 128.515 875.7 115.324 872.51 A 1987.91 1987.91 0 0 1 139.653 871.443 z"/>
<path transform="translate(0,0)" fill="rgb(249,221,165)" d="M 750.685 1581.2 C 752.758 1581.93 755.169 1582.68 756.993 1583.93 C 760.357 1586.23 762.229 1591.11 762.48 1595.04 C 762.666 1597.96 761.661 1599.86 759.909 1602.07 C 756.831 1603.43 755.927 1604.06 752.498 1603.71 L 748.982 1604.82 C 746.231 1604.17 744.005 1604.02 742.231 1601.52 C 740.076 1598.48 740.508 1593.98 741.481 1590.6 C 742.962 1585.47 746.389 1583.73 750.685 1581.2 z"/>
<path transform="translate(0,0)" fill="rgb(249,221,165)" d="M 215.938 1521.94 C 218.722 1522 221.966 1522.17 224.368 1523.71 C 227.337 1525.61 229.214 1529.58 229.622 1533 C 229.915 1535.46 229.516 1539.06 227.815 1541.02 C 226.09 1543 225.009 1543.35 222.5 1543.4 C 220.069 1544.6 218.236 1545.09 215.507 1544.58 C 212.808 1544.07 210.602 1542.62 209.163 1540.27 C 207.246 1537.13 207.044 1533.14 208.12 1529.68 C 209.497 1525.26 211.913 1523.87 215.938 1521.94 z"/>
<path transform="translate(0,0)" fill="rgb(249,221,165)" d="M 257.632 1227.93 L 259.076 1227.6 C 261.254 1228.53 261.412 1228.91 262.76 1230.89 L 262.294 1233.28 C 253.271 1245.77 232.776 1253.32 219.492 1260.81 C 218.777 1261.48 217.636 1262 216.785 1262.51 C 216.887 1262.08 216.923 1261.63 217.089 1261.22 C 217.779 1259.53 220.531 1257.05 221.777 1255.63 C 232.363 1243.61 243.08 1234.7 257.632 1227.93 z"/>
<path transform="translate(0,0)" fill="rgb(249,221,165)" d="M 196.131 501.005 C 197.253 501.076 198.376 501.152 199.489 501.318 C 202.763 501.806 205.92 503.513 207.789 506.307 C 209.571 508.97 209.82 512.022 209.012 515.063 C 207.6 520.382 204.148 522.426 199.664 524.878 C 198.533 524.677 197.403 524.47 196.289 524.185 C 192.528 523.224 189.337 520.972 187.484 517.509 A 10.0921 10.0921 0 0 1 186.74 509.546 C 188.292 504.784 191.878 502.947 196.131 501.005 z"/>
<path transform="translate(0,0)" fill="rgb(249,221,165)" d="M 1364.03 495.917 C 1366.05 495.679 1368.5 495.552 1370.49 496.029 C 1373.61 496.776 1376.81 499.454 1378.46 502.149 A 11.8395 11.8395 0 0 1 1379.72 511.536 C 1378.45 515.917 1375.26 517.572 1371.47 519.487 C 1369.92 519.642 1368.37 519.753 1366.81 519.713 A 10.9768 10.9768 0 0 1 1358.49 515.617 C 1356.5 513.142 1355.91 510.033 1356.32 506.936 C 1357.04 501.552 1359.92 498.941 1364.03 495.917 z"/>
<path transform="translate(0,0)" fill="rgb(249,221,165)" d="M 931.144 148.995 C 932.294 148.923 933.44 148.904 934.592 148.955 C 938.635 149.133 942.134 150.702 944.729 153.874 C 946.953 156.591 947.77 160.016 947.156 163.459 C 946.273 168.411 943.232 170.961 939.269 173.666 C 937.724 173.712 936.18 173.751 934.635 173.697 C 930.976 173.568 927.76 171.977 925.414 169.129 C 923.265 166.521 922.543 163.248 923.104 159.947 C 924.014 154.591 927.076 152.054 931.144 148.995 z"/>
<path transform="translate(0,0)" fill="rgb(249,221,165)" d="M 1376.43 1207.82 C 1381.94 1213.63 1377.63 1226.96 1383.07 1233.79 C 1389.87 1242.33 1405.41 1242.9 1415.41 1243.81 C 1406.22 1245.15 1393.92 1245.47 1386.58 1251.72 C 1378.68 1258.46 1378.74 1272.45 1377.69 1282.03 C 1375.16 1273.15 1375.8 1261.88 1370.24 1254.11 C 1364.19 1245.66 1349.08 1245.47 1339.63 1244.17 C 1348.31 1243.14 1360.63 1243.08 1367.66 1237.36 C 1375.73 1230.78 1375.54 1217.39 1376.43 1207.82 z"/>
<path transform="translate(0,0)" fill="rgb(249,221,165)" d="M 417.359 1795.79 C 418.31 1796.93 418.167 1796.5 418.514 1797.75 C 419.582 1801.62 420.451 1805.52 421.783 1809.32 C 423.98 1815.57 428.087 1822.79 434.446 1825.49 C 438.846 1827.36 448.662 1827.62 453.009 1825.64 C 445.933 1831.27 435.354 1830.29 428.515 1834.89 C 422.514 1838.92 420.369 1853.34 419.068 1860.08 L 418.434 1864.06 C 417.605 1862.73 417.537 1861.71 417.35 1860.19 C 412.789 1823.12 403.215 1839.49 386.756 1826.16 C 386.51 1825.97 386.273 1825.75 386.031 1825.55 C 387.242 1826.09 388.549 1826.61 389.884 1826.73 C 395.015 1827.19 402.396 1825.62 406.412 1822.51 C 415.124 1815.76 416.007 1805.87 417.359 1795.79 z"/>
<path transform="translate(0,0)" fill="rgb(249,221,165)" d="M 758.49 1786.68 C 760.371 1792.16 761.281 1798.05 763.012 1803.62 C 765.604 1811.96 769.917 1818.7 777.895 1822.77 C 783.53 1825.64 795.682 1830.03 801.937 1828.08 C 794.082 1833.45 779.116 1834.3 772.353 1838.62 C 766.253 1842.51 761.197 1865.39 759.498 1872.75 C 757.64 1871.54 756.855 1865.41 756.228 1863.1 C 750.886 1843.41 749.865 1837.85 728.465 1833.05 C 725.01 1832.27 720.389 1831.77 717.377 1829.87 C 716.97 1829.61 716.58 1829.33 716.181 1829.06 C 724.521 1829.89 736.653 1826.66 743.486 1821.79 C 754.842 1813.7 756.177 1799.31 758.49 1786.68 z"/>
<path transform="translate(0,0)" fill="rgb(249,221,165)" d="M 1262.41 314.769 C 1266.02 318.88 1265.98 337.41 1272.87 346.433 C 1280.99 357.055 1296.24 358.519 1308.47 360.471 C 1298.3 362.193 1287 363.832 1278.6 370.307 C 1267.26 379.044 1265.58 394.803 1263.87 407.989 L 1263.39 409.594 C 1261.6 399.138 1260.75 385.531 1254.37 376.77 C 1245.55 364.646 1229.62 362.944 1215.92 360.875 C 1227.54 359.516 1239.62 358.866 1248.95 350.948 C 1259.2 342.261 1261.23 327.306 1262.41 314.769 z"/>
<path transform="translate(0,0)" fill="rgb(249,221,165)" d="M 335.126 322.666 C 337.737 333.735 337.686 346.231 344.443 355.961 C 351.42 366.007 375.303 367.349 386.638 368.986 C 375.539 370.08 360.301 371.523 351.023 378.117 C 338.524 387.001 337.978 404.292 335.562 418.058 C 332.169 406.68 332.491 393.745 325.197 383.744 C 316.647 372.02 298.156 371.072 285.106 368.798 C 295.889 367.205 310.417 366.543 319.901 360.885 C 331.661 353.869 332.378 334.642 335.126 322.666 z"/>
<path transform="translate(0,0)" fill="rgb(249,221,165)" d="M 847.663 229.881 C 849.329 233.674 849.456 238.588 850.059 242.677 C 852.167 256.96 855.321 271.726 864.687 283.209 C 877.4 298.794 896.514 301.981 915.378 303.866 C 900.632 305.87 885.29 307.668 872.833 316.562 C 854.92 329.35 851.561 351.526 848.308 371.729 C 842.37 354.723 843.592 338.787 830.796 323.595 C 818.11 308.532 797.905 306.719 779.667 305.031 C 794.172 303.586 809.074 301.044 821.219 292.422 C 841.502 278.022 843.794 252.455 847.663 229.881 z"/>
<path transform="translate(0,0)" fill="rgb(249,221,165)" d="M 568.415 167.271 C 574.749 166.764 581.411 167.002 587.675 168.067 C 607.279 171.401 620.539 182.534 631.774 198.307 C 626.818 194.482 621.888 191.259 616.034 188.947 C 602.49 183.596 587.512 183.065 574.076 189.075 C 561.665 194.627 552.214 205.315 547.421 217.96 A 52.5166 52.5166 0 0 0 549.165 259.452 C 554.837 271.495 564.893 281.044 577.503 285.491 C 591.927 290.578 605.769 288.34 619.308 282.021 C 623.062 279.768 626.478 276.547 629.868 273.762 C 628.513 276.195 627.128 278.614 625.573 280.927 C 616.374 294.604 603.684 303.904 587.357 307.052 A 68.4518 68.4518 0 0 1 536.491 296.273 A 67.8147 67.8147 0 0 1 508.122 252.479 A 72.3702 72.3702 0 0 1 520.188 196.796 C 531.944 180.036 548.432 170.668 568.415 167.271 z"/>
</svg>