<svg version="1.1" xmlns="http://www.w3.org/2000/svg" style="display: block;" viewBox="0 0 1536 2048" width="1024" height="1365">
<defs>
	<linearGradient id="Gradient1" gradientUnits="userSpaceOnUse" x1="1496.72" y1="827.99" x2="39.6623" y2="1213.44">
		<stop class="stop0" offset="0" stop-opacity="1" stop-color="rgb(252,234,199)"/>
		<stop class="stop1" offset="1" stop-opacity="1" stop-color="rgb(228,228,219)"/>
	</linearGradient>
</defs>
<path transform="translate(0,0)" fill="rgb(60,75,79)" d="M 0 0 L 1536 0 L 1536 2046.25 C 1535.32 2046.64 1534.57 2047.12 1533.81 2047.38 C 1526.81 2049.75 1466.36 2048 1454.87 2048 L 1215.47 2048.02 L 24.3373 2048 C 17.701 2048 5.68581 2049.5 0 2046.25 L 0 0 z"/>
<path transform="translate(0,0)" fill="rgb(234,230,214)" d="M 246.51 36.5 L 1070.66 36.5804 L 1315.36 36.548 L 1390.5 36.6122 C 1404.23 36.6343 1418.16 36.1392 1431.86 36.9263 C 1441.89 37.5029 1450.94 40.164 1459.82 44.8565 C 1477.93 54.4281 1489.88 69.4566 1495.75 89.0442 C 1501.37 107.805 1498.8 142.273 1498.83 162.356 L 1498.79 250.69 L 1497.99 540.37 L 1498.07 1547.59 L 1498.04 1811.18 C 1498.08 1851.81 1499.05 1892.59 1498.35 1933.2 C 1498.07 1949.02 1496.39 1961.39 1488.6 1975.51 C 1480.34 1990.49 1464.04 2003.24 1447.6 2007.9 C 1441.54 2009.62 1434.82 2010.23 1428.54 2010.55 C 1403.29 2011.85 1377.54 2010.85 1352.25 2010.88 C 1334.45 2010.9 1315.56 2012.33 1297.9 2010.65 C 1296.15 2010.48 1295 2009.9 1293.5 2009.04 C 1290.97 2010.58 1288.82 2010.67 1285.95 2010.74 C 1258.82 2011.36 1231.49 2010.63 1204.34 2010.62 L 1040.79 2010.76 L 516.038 2010.88 L 233.366 2010.88 L 150.194 2010.9 C 134.587 2010.96 118.131 2012.13 102.654 2010.52 C 86.2042 2008.8 71.3771 2001.29 59.5409 1989.83 C 41.1484 1972.04 37.3794 1951.59 37.2229 1927.06 L 36.9949 690.724 L 36.8994 286.701 L 37.0563 165.164 C 37.0539 143.803 35.5717 121.162 37.6081 99.9189 C 39.0701 84.6683 46.4421 69.6259 57.2913 58.8372 C 67.2692 48.9151 81.0848 41.3756 94.827 38.309 C 111.019 34.6958 130.967 36.791 147.642 36.7498 L 246.51 36.5 z"/>
<path transform="translate(0,0)" fill="rgb(60,75,79)" d="M 253.861 42.5097 L 1011.73 42.2509 L 1284 42.4486 L 1372.94 42.2965 C 1390.13 42.2469 1407.5 41.7045 1424.67 42.4839 C 1435.72 42.9856 1445.06 44.4297 1455.03 49.5008 A 68.4562 68.4562 0 0 1 1489.58 89.4553 C 1495.77 108.789 1493.09 145.635 1493.09 167.182 L 1493.04 247.318 L 1492.79 535.297 L 1492.44 1568.67 L 1492.31 1801.8 C 1492.39 1843.08 1493.23 1884.45 1492.67 1925.71 C 1492.45 1941.79 1492.23 1955.29 1484.62 1969.94 C 1476.98 1984.67 1461.65 1997.67 1445.58 2002.22 C 1426.81 2007.53 1364.07 2004.92 1341.11 2004.91 C 1324.06 2004.9 1305.85 2006.15 1288.93 2004.62 C 1287.16 2004.46 1286.02 2003.89 1284.5 2003.04 C 1282.05 2004.51 1280.08 2004.67 1277.27 2004.73 C 1255.37 2005.27 1233.33 2004.7 1211.42 2004.67 L 1061 2004.41 L 526.932 2004.9 L 242.909 2004.87 L 154.309 2004.88 C 137.194 2004.88 119.417 2005.82 102.385 2004.09 C 87.9149 2002.61 74.394 1995.71 64.0263 1985.57 C 48.5638 1970.45 43.2241 1953.21 43.0047 1932.04 C 41.7441 1810.4 43.1287 1688.59 43.0907 1566.92 L 42.9964 738.884 L 42.9307 306.46 L 42.9968 174.216 C 42.9722 150.792 41.513 126.295 43.4403 102.969 A 64.1333 64.1333 0 0 1 62.1965 63.102 C 71.0309 54.1932 83.055 47.0009 95.3184 44.11 C 111.328 40.336 131.868 42.7674 148.403 42.7401 L 253.861 42.5097 z"/>
<path transform="translate(0,0)" fill="rgb(234,230,214)" d="M 107.428 74.3622 C 209.37 75.6859 311.545 73.9957 413.511 74.0463 L 1125.58 74.126 L 1344.75 74.1834 C 1361.88 74.1478 1423.07 72.0517 1435.14 74.9043 C 1444.65 77.1528 1452.18 82.5373 1457.14 90.9967 C 1460.69 97.0498 1462.24 103.452 1462.61 110.412 C 1463.54 128.057 1462.88 146.058 1462.88 163.736 L 1462.92 259.399 L 1462.92 559.302 L 1463.2 1459.73 L 1463.7 1843.38 C 1463.56 1863.19 1465.78 1935.15 1462.19 1948.67 C 1459.82 1957.63 1453.58 1965.39 1445.56 1969.96 C 1441.2 1972.45 1436.56 1974.5 1431.5 1973.11 C 1430.65 1973.7 1430.5 1973.89 1429.35 1974.2 C 1423.59 1975.74 1384.37 1973.96 1374.89 1973.96 L 1171.04 1973.9 L 238.119 1973.95 L 142.228 1974.08 C 129.314 1974.09 112.966 1975.9 100.318 1973.51 C 96.1588 1972.72 91.9787 1970.47 88.6112 1967.93 C 81.0513 1962.24 75.8205 1954.46 74.6078 1944.92 C 72.6242 1929.32 74.7463 1904.68 74.8253 1888.22 L 74.9209 1763.08 L 75.1506 1323.28 L 74.991 457.56 L 73.8069 203.878 C 73.7185 174.416 72.624 144.816 73.159 115.371 C 73.3394 105.437 74.0885 96.795 80.3232 88.6717 C 87.2322 79.6699 96.4625 75.7321 107.428 74.3622 z"/>
<path transform="translate(0,0)" fill="rgb(47,59,59)" d="M 1401.6 1835.4 C 1403.68 1836.07 1405.91 1836.94 1407.32 1838.72 C 1409.07 1840.95 1409.29 1842.27 1409.08 1844.99 C 1407.3 1846.7 1406.93 1846.8 1404.5 1847.34 C 1402.71 1848.33 1402.06 1848.13 1399.98 1848.05 C 1398.74 1846.56 1398.39 1846.01 1398.12 1844.01 C 1397.59 1840.04 1399.33 1838.34 1401.6 1835.4 z"/>
<path transform="translate(0,0)" fill="rgb(60,75,79)" d="M 1422.94 1811.43 A 14.153 14.153 0 0 1 1413.91 1811.55 C 1412.12 1809.97 1411.79 1810 1411.45 1807.66 L 1413.16 1806 C 1421.18 1803.28 1431.51 1804.63 1439.21 1807.99 L 1439.52 1809.08 L 1436.54 1808.29 C 1435.41 1808.86 1433.12 1809.64 1432.26 1810.46 C 1424.5 1817.76 1414.21 1897.42 1403.07 1909.28 C 1397.83 1899.98 1395.38 1886.76 1392.64 1876.45 C 1386.74 1854.33 1381.76 1831.47 1374.29 1809.83 C 1374.06 1809.93 1373.85 1810.06 1373.61 1810.12 C 1370.64 1810.96 1366.41 1809.49 1363.7 1808.2 C 1364.66 1806.27 1369.05 1805.45 1371.2 1804.4 L 1371.77 1804.11 C 1379.68 1807.06 1388.87 1802.97 1396.45 1806.66 L 1396.81 1809.12 C 1395.81 1810.82 1395.67 1811.63 1393.61 1812.13 C 1390.35 1812.93 1385.88 1812 1382.97 1810.5 C 1384.32 1819.06 1401.39 1879.79 1403.57 1883.38 C 1408.32 1876.52 1420.57 1822.57 1422.94 1811.43 z"/>
<path transform="translate(0,0)" fill="rgb(60,75,79)" d="M 132.518 122.347 C 139.473 125.532 158.353 217.187 164.22 221.271 C 166.537 222.883 170.146 223.071 172.839 224.967 L 172.692 226.665 C 166.471 229.859 143.92 227.787 136.548 226.447 C 140.134 224.698 148.03 223.602 150.397 220.872 C 149.59 213.384 144.118 190.723 139.286 185.504 L 135.753 185.459 L 120.292 185.92 C 116.693 197.088 112.16 208.92 110.415 220.511 C 112.196 222.052 113.914 223.628 115.61 225.263 L 114.872 226.719 C 108.788 228.859 96.6682 228.399 90.8756 225.74 L 91.7203 224.603 C 95.1185 223.083 98.3456 222.816 101.992 222.471 C 113.193 189.395 121.808 155.576 132.518 122.347 z"/>
<path transform="translate(0,0)" fill="rgb(234,230,214)" d="M 130.862 144.388 C 134.79 150.337 138.282 173.07 139.539 180.764 L 133.25 180.853 L 122.432 180.913 C 120.744 173.867 128.279 151.905 130.862 144.388 z"/>
<path transform="translate(0,0)" fill="rgb(60,75,79)" d="M 1402.4 1672.72 C 1403.33 1679.75 1406.84 1687.82 1410.32 1693.95 C 1417.92 1707.37 1431.97 1719.35 1446.97 1723.47 C 1444.31 1726.51 1436.76 1728.96 1432.99 1731.04 C 1416.94 1739.91 1407.64 1756.55 1402.77 1773.6 L 1401.71 1775.06 C 1395.4 1753.77 1390.97 1743.79 1372 1731.03 C 1367.92 1728.29 1362.8 1726.25 1359.17 1723.02 C 1358.78 1722.68 1358.42 1722.32 1358.04 1721.97 C 1362.64 1722.48 1367.91 1719.81 1371.89 1717.62 C 1388.44 1708.53 1397.44 1690.06 1402.4 1672.72 z"/>
<path transform="translate(0,0)" fill="rgb(60,75,79)" d="M 132.404 263.479 C 135.886 266.003 145.159 284.351 149.109 289.496 C 156.111 298.614 164.016 305.861 172.986 312.924 C 155.528 325.669 142.59 345.283 132.843 364.324 C 123.972 345.421 110.888 324.329 92.9436 312.904 C 110.85 299.731 122.999 283.411 132.404 263.479 z"/>
<path transform="translate(0,0)" fill="rgb(60,75,79)" d="M 248.892 153.374 C 308.901 151.735 369.356 153.159 429.406 153.145 L 793.943 153.257 L 1115.32 153.16 C 1171.97 153.142 1229.15 151.521 1285.73 153.482 C 1294.25 153.777 1302.69 154.28 1310.58 157.771 C 1323.23 163.37 1334.69 174.945 1339.54 187.973 A 46.9151 46.9151 0 0 1 1342.43 201.075 C 1343.68 217 1342.61 233.751 1342.55 249.76 L 1342.74 330.824 L 1342.18 787.836 L 1342.06 1476.85 L 1342.02 1728.06 C 1341.99 1762.35 1342.98 1796.82 1342.33 1831.09 C 1342.14 1840.74 1341.47 1849.76 1337.22 1858.58 A 56.6864 56.6864 0 0 1 1304.29 1887.26 C 1299.33 1888.92 1291.33 1890.64 1286.5 1888.29 C 1285.27 1888.77 1284.31 1889.15 1282.99 1889.33 C 1272.18 1890.77 1259.62 1889.53 1248.66 1889.47 L 1176.31 1889.15 L 919.396 1889.42 L 452.089 1889.28 A 11098.5 11098.5 0 0 0 323.939 1889.44 C 298.906 1889.6 273.309 1890.9 248.351 1889.51 C 234.898 1888.76 223.413 1885.09 212.811 1876.47 C 202.719 1868.26 195.632 1855.98 194.409 1842.93 C 192.347 1820.94 194.197 1796.17 194.217 1773.9 L 194.226 1629.47 L 194.375 1160.33 L 194.768 506.463 L 194.795 315.272 C 194.727 280.45 193.311 245.058 194.872 210.292 C 195.492 196.472 198.065 185.59 207.078 174.781 C 218.019 161.657 232.131 155.011 248.892 153.374 z"/>
<path transform="translate(0,0)" fill="url(#Gradient1)" d="M 245.32 163.258 C 266.897 161.386 289.606 162.831 311.335 162.857 L 438.393 162.913 L 852.603 162.942 L 1171.23 162.939 L 1253.2 162.808 C 1267.92 162.789 1285.72 160.912 1299.98 164.115 C 1310.98 166.584 1321.24 173.69 1327.04 183.389 C 1329.88 188.136 1331.56 193.561 1332.26 199.031 C 1333.91 211.864 1332.8 225.935 1332.73 238.879 L 1332.62 307.755 L 1332.63 565.882 L 1331.89 1521.29 L 1331.78 1753.07 C 1331.76 1769.89 1333.75 1837.91 1330.1 1849.96 C 1327.09 1859.88 1318.57 1869.26 1309.55 1874.11 C 1305.05 1876.53 1299.53 1878.5 1294.5 1877.01 C 1293.38 1877.74 1292.34 1878.32 1291.01 1878.55 C 1282.11 1880.03 1271.2 1878.91 1262.08 1878.92 L 1199.67 1878.94 L 968.178 1878.94 L 479.378 1878.91 L 332.319 1878.8 C 303.993 1878.87 275.37 1879.94 247.074 1878.99 C 237.479 1878.67 230.168 1876.41 222.215 1870.97 C 212.549 1864.37 206.51 1853.73 204.576 1842.29 C 202.034 1827.27 203.617 1809.96 203.664 1794.7 L 203.947 1702.06 A 34381.2 34381.2 0 0 1 203.776 1356.73 L 203.882 559.028 L 203.929 332.67 C 203.928 293.843 203.334 254.91 204.074 216.093 C 204.299 204.306 205.442 193.549 212.505 183.745 C 220.554 172.573 231.847 165.576 245.32 163.258 z"/>
<path transform="translate(0,0)" fill="rgb(47,59,59)" d="M 669.546 934.669 L 698.246 933.677 L 699.082 939.628 C 689.322 937.245 679.49 935.973 669.546 934.669 z"/>
<path transform="translate(0,0)" fill="rgb(47,59,59)" d="M 699.489 827.365 A 314.53 314.53 0 0 1 720.677 832.527 L 721.312 835.802 L 719.652 838.619 L 699.489 827.365 z"/>
<path transform="translate(0,0)" fill="rgb(47,59,59)" d="M 1116.05 710.568 C 1129.32 694.914 1141.31 678.45 1153.27 661.795 C 1147.59 677.803 1143.73 693.813 1140.83 710.531 L 1139.72 706.242 C 1138.61 705.762 1139.29 705.97 1137.64 705.834 C 1139.39 697.6 1141.47 689.548 1143.76 681.45 C 1139.84 688.86 1134.7 700.123 1127.8 705.234 L 1127.03 703.581 C 1129.93 699.635 1137.29 691.652 1137.6 687.148 C 1131.94 690.578 1124.97 708.656 1116.05 710.568 z"/>
<path transform="translate(0,0)" fill="rgb(47,59,59)" d="M 1103.34 1218.63 C 1102.74 1223.71 1106.59 1230.03 1108.88 1234.5 C 1111.02 1229.23 1103.43 1210.49 1106.76 1200.35 C 1109.24 1224.12 1112.58 1247.9 1119.99 1270.7 C 1113 1257.19 1105.78 1243.96 1097.38 1231.26 L 1101.81 1229.8 C 1104.05 1234.71 1106.43 1239.05 1109.56 1243.45 C 1105.86 1231.65 1100.5 1220.51 1095.36 1209.29 L 1097.39 1206.01 C 1099.16 1210.26 1100.72 1214.83 1103.34 1218.63 z"/>
<path transform="translate(0,0)" fill="rgb(60,75,79)" d="M 1189.23 915.299 C 1195.3 911.655 1203.08 905.913 1210.22 905.185 C 1229.56 903.215 1253.62 915.471 1273.1 918.636 C 1292.41 921.774 1311.42 920.806 1330.88 920.723 C 1322.86 923.463 1314.47 923.688 1306.38 925.929 C 1305.28 927.171 1304.66 928.117 1302.99 928.497 C 1302.72 928.573 1302.46 928.651 1302.19 928.723 C 1289.87 932.066 1278.47 931.654 1266.02 933.016 C 1253.71 934.364 1241.5 936.915 1229.21 938.494 C 1220.23 939.647 1210.08 938.821 1201.99 943.36 C 1209.97 948.333 1276.65 933.987 1290.23 931.908 C 1271.87 939.223 1254.52 948.796 1236.18 956.105 C 1222.17 961.691 1207.63 965.232 1192.97 968.713 C 1193.52 950.458 1192.18 933.322 1189.23 915.299 z"/>
<path transform="translate(0,0)" fill="rgb(234,230,214)" d="M 1195.48 928.774 C 1223.33 915.246 1252.93 923.858 1282.1 926.208 C 1290.18 926.86 1298.29 926.378 1306.38 925.929 C 1305.28 927.171 1304.66 928.117 1302.99 928.497 C 1298.9 928.06 1294.12 929.202 1289.95 929.413 A 572.651 572.651 0 0 1 1261.18 930.011 C 1235.72 929.943 1221.69 923.298 1195.48 928.774 z"/>
<path transform="translate(0,0)" fill="rgb(60,75,79)" d="M 472.131 727.631 C 475.373 732.116 477.387 739.336 479.828 744.515 C 490.19 766.501 500.031 775.673 519.545 789.437 C 493.745 805.106 482.92 816.856 472.628 845.478 L 472.256 845.574 C 470.574 844.684 459.364 819.654 456.605 815.529 C 448.571 803.519 438.232 794.406 426.47 786.155 C 452.014 770.315 460.973 754.952 472.131 727.631 z"/>
<path transform="translate(0,0)" fill="rgb(60,75,79)" d="M 1094.77 1123.35 C 1115.24 1160.74 1106.33 1161.77 1106.76 1200.35 C 1103.43 1210.49 1111.02 1229.23 1108.88 1234.5 C 1106.59 1230.03 1102.74 1223.71 1103.34 1218.63 C 1100.72 1214.83 1099.16 1210.26 1097.39 1206.01 L 1095.36 1209.29 C 1100.5 1220.51 1105.86 1231.65 1109.56 1243.45 C 1106.43 1239.05 1104.05 1234.71 1101.81 1229.8 L 1097.38 1231.26 C 1092.59 1226.6 1088.35 1219.56 1084.03 1214.27 C 1061.62 1186.8 1053.46 1176.72 1045.42 1140.97 C 1063 1137.11 1078.5 1130.96 1094.77 1123.35 z"/>
<path transform="translate(0,0)" fill="rgb(234,230,214)" d="M 1097.39 1206.01 C 1092.77 1191.16 1080.17 1151.01 1082.49 1136.91 C 1084.52 1137.81 1085.52 1141.75 1086.33 1143.87 C 1090.43 1154.54 1090.45 1166.72 1092.64 1177.9 C 1094.53 1187.54 1098.12 1197.07 1100.93 1206.48 C 1102.01 1210.07 1103.7 1214.88 1103.34 1218.63 C 1100.72 1214.83 1099.16 1210.26 1097.39 1206.01 z"/>
<path transform="translate(0,0)" fill="rgb(234,230,214)" d="M 1062.5 1139.53 C 1062.99 1140.17 1063.45 1140.83 1063.94 1141.47 C 1070.31 1149.74 1073.18 1159.93 1079.25 1168.53 L 1080.07 1168.21 L 1080.14 1165.67 L 1080.87 1165.4 L 1080.37 1164.51 C 1084.05 1180.57 1088.78 1194.22 1095.36 1209.29 C 1100.5 1220.51 1105.86 1231.65 1109.56 1243.45 C 1106.43 1239.05 1104.05 1234.71 1101.81 1229.8 C 1092.52 1207.28 1064.81 1160.3 1062.5 1139.53 z"/>
<path transform="translate(0,0)" fill="rgb(60,75,79)" d="M 841.318 667.56 C 844.894 671.172 847.451 677.042 850.495 681.263 C 857.234 690.608 864.675 699.723 872.409 708.263 C 887.901 725.371 908.181 738.583 922.146 756.869 C 928.712 765.466 932.562 774.961 936.499 784.918 C 930.891 787.165 925.733 790.127 920.481 793.083 C 911.05 798.489 902.236 804 893.971 811.094 C 862.788 776.695 872.311 762.654 861.418 722.155 C 856.369 703.382 848.563 685.555 841.318 667.56 z"/>
<path transform="translate(0,0)" fill="rgb(234,230,214)" d="M 864.656 711.813 C 874.484 718.198 906.679 757.33 915.692 768.426 C 910.987 765.34 906.78 761.504 902.511 757.851 C 905.062 762.899 908.123 767.654 911.112 772.449 C 913.823 776.405 915.634 780.774 917.577 785.137 C 908.723 774.874 901.967 762.932 893.971 752.005 C 884.486 739.043 872.197 725.956 864.656 711.813 z"/>
<path transform="translate(0,0)" fill="rgb(60,75,79)" d="M 1295.91 821.205 L 1296.31 822.192 C 1288.68 828.444 1279.82 833.182 1272.4 839.666 C 1253.9 855.83 1237.46 874.267 1217.42 888.678 C 1207.65 895.706 1196.86 901.356 1186.36 907.205 C 1184.47 900.896 1182.2 894.691 1180.04 888.47 C 1175.61 875.744 1167.99 863.954 1160.52 852.834 C 1187.99 834.525 1225.27 836.754 1256.79 831.686 C 1270.34 829.506 1282.96 825.707 1295.91 821.205 z"/>
<path transform="translate(0,0)" fill="rgb(60,75,79)" d="M 1192.37 973.54 C 1230.31 974.181 1260.11 1000.43 1292.99 1016.26 C 1302.66 1020.91 1316.51 1022.97 1324.92 1029.22 L 1324.65 1030.74 C 1319.41 1031.61 1313.5 1030.25 1308.24 1029.53 C 1293.18 1025.82 1257.78 1031.38 1241.04 1032.04 C 1219.44 1032.89 1200.2 1030.78 1179 1026.6 C 1185.11 1009.06 1190.46 992.093 1192.37 973.54 z"/>
<path transform="translate(0,0)" fill="rgb(234,230,214)" d="M 1194.43 1006.29 C 1209.08 1007.74 1224.43 1012.36 1239 1014.96 C 1251.8 1017.24 1291.37 1021.7 1299.98 1025.11 A 377.765 377.765 0 0 1 1247.07 1021.46 C 1236.79 1019.98 1200.04 1013.78 1194.43 1006.29 z"/>
<path transform="translate(0,0)" fill="rgb(60,75,79)" d="M 1143.76 681.45 C 1141.47 689.548 1139.39 697.6 1137.64 705.834 C 1139.29 705.97 1138.61 705.762 1139.72 706.242 L 1140.83 710.531 C 1138.61 735.148 1140.09 765.165 1128.91 787.601 C 1125.38 794.678 1120.29 801.039 1115.79 807.521 C 1099.99 796.771 1083.59 788.814 1065.94 781.547 C 1076.64 753.054 1093.95 731.11 1116.05 710.568 C 1124.97 708.656 1131.94 690.578 1137.6 687.148 C 1137.29 691.652 1129.93 699.635 1127.03 703.581 L 1127.8 705.234 C 1134.7 700.123 1139.84 688.86 1143.76 681.45 z"/>
<path transform="translate(0,0)" fill="rgb(234,230,214)" d="M 1143.76 681.45 C 1141.47 689.548 1139.39 697.6 1137.64 705.834 C 1128.46 735.465 1122.91 769.663 1104.67 795.37 A 3610.67 3610.67 0 0 1 1137.06 696.502 C 1122.81 719.762 1110.81 744.366 1096.89 767.894 C 1098.85 761.383 1100.95 755.069 1104.15 749.05 C 1107.11 743.484 1113.68 736.119 1114.92 730.201 C 1111.64 732.916 1109.58 737.1 1107.28 740.644 C 1097.27 756.09 1093.66 766.736 1089.33 784.703 C 1088.92 757.441 1102 739.72 1117.72 718.898 C 1121.05 714.484 1125.02 709.989 1127.8 705.234 C 1134.7 700.123 1139.84 688.86 1143.76 681.45 z"/>
<path transform="translate(0,0)" fill="rgb(60,75,79)" d="M 1242.88 730.128 L 1243.39 730.495 C 1239.91 735.385 1235.59 739.745 1231.86 744.46 C 1225.14 752.934 1218.96 762.261 1213.29 771.471 C 1191.62 806.63 1195.93 821.213 1157.72 848.521 C 1152.81 841.955 1147.25 835.872 1141.85 829.703 C 1135.55 823.281 1128.57 817.838 1121.47 812.346 C 1129.11 804.079 1134.38 793.94 1143.07 786.487 C 1159.56 772.329 1183.08 765.096 1202.37 755.386 C 1216.71 748.168 1229.85 739.461 1242.88 730.128 z"/>
<path transform="translate(0,0)" fill="rgb(234,230,214)" d="M 1222.97 750.204 L 1223.39 750.723 C 1199.06 776.339 1182.2 809.025 1154.76 831.859 C 1166.43 812.973 1180.95 793.775 1195.94 777.36 C 1201.53 771.244 1208.17 766.004 1213.48 759.681 L 1212.4 759.379 C 1196.83 773.276 1177.52 782.593 1160.99 795.269 C 1151.9 802.235 1144.52 811.374 1136.49 819.5 C 1151.48 782.256 1192.42 771.583 1222.97 750.204 z"/>
<path transform="translate(0,0)" fill="rgb(60,75,79)" d="M 1318.48 935.318 C 1320.87 935.04 1322.02 934.641 1324.26 935.621 C 1325.74 944.359 1324.66 955.074 1324.69 964.027 L 1324.97 1022.08 C 1303.02 1013.7 1282.17 1002.15 1262.21 989.805 C 1249.4 982.149 1236.89 975.448 1222.99 969.985 C 1254.16 958.225 1285.53 940.126 1318.48 935.318 z"/>
<path transform="translate(0,0)" fill="rgb(60,75,79)" d="M 698.246 933.677 C 712.165 932.583 725.429 930.753 738.88 926.905 C 757.055 921.706 776.885 911.279 795.896 911.325 C 806.804 911.352 817.215 914.875 827.641 917.659 C 823.571 934.45 823.849 951.462 823.98 968.616 C 813.198 968.717 801.389 972.45 790.973 971.346 C 776.225 969.782 760.005 959.029 746.103 953.51 C 731.143 947.57 714.862 942.796 699.082 939.628 L 698.246 933.677 z"/>
<path transform="translate(0,0)" fill="rgb(234,230,214)" d="M 795.915 937.072 C 780.127 936.37 764.455 936.541 748.669 937.102 C 733.245 937.65 715.88 939.97 700.681 936.92 C 704.426 935.082 736.883 934.366 744.548 933.69 C 759.405 932.38 774.288 929.23 789.204 928.994 C 796.533 928.878 802.832 929.734 809.953 931.487 C 801.423 932.317 792.821 931.454 784.281 932.504 C 786.879 933.8 790.374 933.703 793.241 933.946 C 798.993 933.745 810.445 932.212 814.851 936.137 C 809.949 938.874 801.298 937.451 795.915 937.072 z"/>
<path transform="translate(0,0)" fill="rgb(60,75,79)" d="M 872.602 1082.61 C 884.803 1095.92 898.598 1108.49 914.266 1117.55 C 896.995 1150.27 881.991 1155.79 853.68 1175.34 C 843.208 1182.57 833.847 1190.9 824.651 1199.66 L 802.139 1222.24 C 810.479 1206.58 819.936 1191.7 826.731 1175.24 A 370.615 370.615 0 0 0 836.892 1147.64 C 840.815 1135.18 843.711 1121.72 850.341 1110.36 C 856.321 1100.11 864.73 1091.4 872.602 1082.61 z"/>
<path transform="translate(0,0)" fill="rgb(234,230,214)" d="M 855.295 1136.31 C 857.287 1131.53 859.195 1126.5 861.704 1121.96 C 864.653 1116.64 873.949 1103.54 879.767 1101.84 C 880.396 1108.13 871.509 1116.54 868.144 1121.9 L 867.709 1122.61 C 867.509 1133.85 828.66 1191.97 818.304 1202.63 C 826.372 1188.62 835.508 1175.12 843.316 1161 C 847.749 1152.98 850.87 1144.28 855.295 1136.31 z"/>
<path transform="translate(0,0)" fill="rgb(60,75,79)" d="M 823.926 975.477 C 826.074 978.974 826.356 989.219 827.435 993.769 C 830.032 1004.72 833.808 1015.22 837.575 1025.81 C 827.292 1031.42 816.307 1038.5 804.804 1041.19 C 788.802 1044.92 771.748 1039.83 755.591 1039.26 C 737.514 1038.62 719.017 1040.62 701.181 1043.38 C 694.921 1044.77 688.699 1046.47 682.473 1048.02 C 703.383 1037.92 723.831 1027.97 743.596 1015.7 C 780.836 992.583 774.834 982.949 823.926 975.477 z"/>
<path transform="translate(0,0)" fill="rgb(234,230,214)" d="M 812.32 994.179 C 815.269 993.842 818.217 993.574 820.634 995.326 L 819.721 995.304 L 819.417 996.106 C 798.742 1002 780.687 1011.49 761.042 1019.81 C 752.386 1023.48 743.275 1026.38 734.381 1029.42 C 747.439 1032.67 796.779 1010.83 814.877 1013.71 C 801.101 1019.38 784.779 1019.35 771.334 1025.06 C 771.004 1025.2 770.503 1025.2 770.37 1025.53 C 774.256 1026.04 778.349 1025.25 782.228 1024.82 C 789.73 1023.84 816.747 1018.98 820.953 1013.82 C 821.182 1013.53 821.379 1013.23 821.592 1012.93 L 823.476 1014.8 L 823.472 1016.2 C 805.54 1030.54 742.36 1030.63 716.78 1034.52 C 749.114 1024.12 780.711 1001.61 812.32 994.179 z"/>
<path transform="translate(0,0)" fill="rgb(60,75,79)" d="M 1051.58 623.245 C 1053.51 641.607 1051.01 660.407 1053.08 678.928 C 1055.73 702.668 1071 734.494 1066.04 757.423 C 1064.49 764.604 1060.45 772.285 1057.64 779.112 C 1047.44 776.526 1037.36 774.192 1026.97 772.524 C 1020.16 771.51 1012.9 771.643 1006.02 771.321 C 1005.53 763.681 1004.94 756.092 1006.01 748.475 C 1009.75 721.782 1027.27 693.11 1037.59 668.017 C 1043.59 653.432 1047.66 638.501 1051.58 623.245 z"/>
<path transform="translate(0,0)" fill="rgb(234,230,214)" d="M 1046.98 649.911 C 1047.52 665.175 1047.45 680.554 1048.38 695.792 C 1049.59 715.664 1053.11 734.094 1049.21 754.02 L 1048.52 754.751 C 1047.46 749.774 1049.4 740.748 1049.5 735.247 C 1049.66 726.764 1048.91 718.063 1047.73 709.665 L 1046.26 726.467 C 1046.25 734.458 1048.1 761.363 1043.85 766.73 C 1041.24 762.613 1042.36 724.034 1043.14 716.202 C 1043.03 702.406 1046.28 687.469 1044.91 673.917 L 1044.6 674.44 L 1044.64 672.619 C 1044.21 673.772 1044.15 674.628 1044.1 675.828 C 1043.64 687.516 1039.32 700.498 1037.13 712.134 C 1034.22 727.63 1033.46 744.606 1028.22 759.465 C 1028.81 750.615 1032.64 727.433 1032.22 721.503 C 1028.47 734.186 1026.16 746.073 1024.73 759.21 L 1023.88 758.717 L 1024.25 760.625 C 1020.16 752.545 1024.22 731.622 1027.02 723.262 C 1035.2 698.845 1041.68 675.128 1046.98 649.911 z"/>
<path transform="translate(0,0)" fill="rgb(60,75,79)" d="M 1177.49 1031.16 C 1216.36 1046.17 1229.53 1074.95 1255.14 1103.96 C 1265.78 1116.01 1277.97 1126.05 1290.76 1135.72 L 1269.59 1126.22 A 185.537 185.537 0 0 0 1224.29 1110.32 C 1207.47 1106.69 1187.21 1105.4 1172.11 1096.94 C 1163.29 1091.99 1156.27 1084.68 1149.04 1077.73 C 1160.13 1062.96 1169.69 1047.93 1177.49 1031.16 z"/>
<path transform="translate(0,0)" fill="rgb(60,75,79)" d="M 720.677 832.527 C 735.079 835.103 749.436 837.266 764.021 838.499 C 795.759 841.181 823.036 840.512 849.136 861.907 C 839.846 877.26 834.672 892.993 829.543 910.057 C 818.352 907.18 807.088 904.402 796.739 899.105 C 779.401 890.231 765.378 874.651 750.862 861.911 A 260.077 260.077 0 0 0 719.652 838.619 L 721.312 835.802 L 720.677 832.527 z"/>
<path transform="translate(0,0)" fill="rgb(234,230,214)" d="M 721.312 835.802 C 726.671 837.478 732.322 838.898 737.559 840.867 C 764.192 846.301 815.743 854.083 835.199 872.995 L 835.388 874.968 C 826.228 872.814 818.343 866.839 809.549 863.563 C 787.69 855.418 764.007 848.268 741.187 843.317 C 756.676 855.792 786.035 860.056 804.52 869.987 C 794.965 868.396 786.252 864.215 776.419 862.919 C 793.115 874.301 811.171 881.384 828.719 891.073 C 799.559 886.267 777.411 867.725 752.512 853.38 C 742.365 847.534 730.79 842.563 721.312 835.802 z"/>
<path transform="translate(0,0)" fill="rgb(60,75,79)" d="M 749.064 729.654 C 757.896 732.568 771.993 745.578 781.697 750.927 C 806.69 764.705 835.091 774.181 858.652 790.088 C 869.553 797.448 878.295 806.618 887.368 816.031 C 880.622 821.706 874.853 828.057 869.072 834.673 C 863.436 841.399 858.191 848.46 852.855 855.425 C 844.349 848.458 831.175 842.615 824.41 835.337 C 813.299 823.382 806.799 803.853 797.662 789.761 C 783.738 768.286 766.14 748.671 749.064 729.654 z"/>
<path transform="translate(0,0)" fill="rgb(60,75,79)" d="M 982.425 1142.74 C 1000.5 1145.24 1018.48 1144.24 1036.57 1142.59 C 1038.58 1153.11 1041.01 1163.56 1040.55 1174.35 C 1039.72 1193.54 1029.66 1211.44 1023.73 1229.42 C 1019.72 1241.58 1017.22 1253.91 1015.01 1266.5 L 1011.12 1293.01 C 1008.77 1274 1006.71 1254.84 1001.15 1236.44 C 988.591 1194.88 972.541 1191.04 982.425 1142.74 z"/>
<path transform="translate(0,0)" fill="rgb(234,230,214)" d="M 1019.43 1151.2 L 1021.74 1152.11 C 1028.91 1160.4 1016.59 1224.65 1015.81 1238.87 L 1015.08 1239.78 L 1014.01 1238.76 C 1012.95 1223.6 1016 1206.56 1017.05 1191.27 C 1017.97 1178.06 1017.72 1164.29 1019.43 1151.2 z"/>
<path transform="translate(0,0)" fill="rgb(234,230,214)" d="M 1001.11 1150.72 L 1003.33 1152.43 C 1004.32 1158.39 1010.17 1198.63 1009.17 1202.26 C 1005.92 1198.52 1005.27 1175.44 1002.82 1168.83 C 999.92 1185.35 1010.37 1207.95 1011.79 1226.75 C 1012.58 1236.04 1013.32 1259.77 1009.92 1267.93 L 1010.09 1267.2 L 1009.16 1266.79 C 1008.58 1254.44 1010.19 1242.56 1008.76 1230.02 C 1006.15 1207.2 990.877 1172.41 1001.11 1150.72 z"/>
<path transform="translate(0,0)" fill="rgb(60,75,79)" d="M 922.049 1121.66 C 938.099 1131.25 954.825 1136.89 972.82 1141.6 C 970.976 1151.66 969.304 1161.77 965.426 1171.28 C 958.427 1188.46 946.046 1201.94 935.416 1216.84 C 927.697 1227.66 920.826 1239.04 914.079 1250.48 C 907.614 1260.79 902.192 1271.86 895.962 1282.34 C 902.899 1259.2 908.215 1235.5 909.708 1211.32 C 912.108 1172.47 897.935 1158.69 922.049 1121.66 z"/>
<path transform="translate(0,0)" fill="rgb(60,75,79)" d="M 1146.25 1080.97 C 1153.34 1091.42 1162.03 1101.59 1167.91 1112.71 C 1177.97 1131.71 1183.27 1152.85 1191.24 1172.73 C 1199.42 1193.1 1211.35 1210.76 1223.6 1228.85 C 1215.51 1221.28 1208.2 1212.97 1200.23 1205.29 C 1191.59 1200.28 1182.21 1190.79 1173.86 1184.54 C 1146.1 1166.54 1116.91 1150.54 1103.33 1118.58 C 1118.82 1106.9 1133.18 1095.45 1146.25 1080.97 z"/>
<path transform="translate(0,0)" fill="rgb(47,59,59)" d="M 1173.86 1184.54 L 1174.57 1184.34 C 1176.68 1183.74 1178.18 1183.11 1180.01 1181.9 L 1180.2 1180.26 C 1178.41 1179.05 1176.78 1178.6 1176.26 1176.44 L 1178.95 1173.86 C 1180.84 1175.72 1196.24 1196.4 1196.75 1197.92 L 1195.15 1198.67 L 1195.23 1199.18 C 1197.35 1200.64 1199.87 1201.93 1201.28 1204.1 L 1200.23 1205.29 C 1191.59 1200.28 1182.21 1190.79 1173.86 1184.54 z"/>
<path transform="translate(0,0)" fill="rgb(60,75,79)" d="M 741.868 1128.67 C 754.288 1115.76 766.668 1102.82 777.963 1088.89 C 786.992 1077.76 795.019 1062.74 805.999 1053.72 C 815.881 1045.61 829.752 1040 841.136 1034.1 C 848.245 1049.17 857.062 1062.74 867.06 1076.02 C 858.639 1084.08 851.457 1096.36 842.391 1103.09 C 831.218 1111.38 804.95 1112.19 790.877 1115.82 C 780.703 1118.44 770.942 1122.21 761.15 1125.98 C 747.586 1132.14 734.623 1139.31 721.275 1145.88 C 727.018 1140.9 735.193 1131.74 741.868 1128.67 z"/>
<path transform="translate(0,0)" fill="rgb(60,75,79)" d="M 943.529 654.062 A 2908.88 2908.88 0 0 1 941.185 621.01 C 944.643 633.049 948.195 644.964 952.436 656.754 C 957.29 664.45 960.891 673.73 965.145 681.83 C 975.619 701.775 988.854 720.756 994.699 742.78 C 997.043 751.611 996.927 761.972 998.115 771.095 C 979.669 772.694 963.072 775.918 945.536 781.887 C 941.016 772.081 935.194 761.49 933.508 750.733 C 930.801 733.464 938.205 709.578 940.618 692.029 C 942.354 679.407 943.013 666.782 943.529 654.062 z"/>
<path transform="translate(0,0)" fill="rgb(47,59,59)" d="M 943.529 654.062 A 2908.88 2908.88 0 0 1 941.185 621.01 C 944.643 633.049 948.195 644.964 952.436 656.754 L 951.095 656.972 C 950.35 658.103 950.356 657.594 950.592 658.643 C 952.867 668.771 961.616 678.83 962.517 688.984 L 961.515 690.183 C 957.857 683.238 955.18 675.305 951.919 668.12 C 951.343 666.678 950.418 665.267 949.67 663.898 C 949.022 661.491 948.283 659.113 947.553 656.73 L 947.284 660.764 A 327.845 327.845 0 0 0 946.433 668.354 C 945.09 666.878 945.922 663.49 945.789 661.401 C 945.332 663.09 945.066 664.782 944.794 666.507 L 944.093 666.248 C 944.198 662.38 944.304 658.698 943.672 654.864 C 943.627 654.596 943.577 654.329 943.529 654.062 z"/>
<path transform="translate(0,0)" fill="rgb(234,230,214)" d="M 951.919 668.12 C 955.18 675.305 957.857 683.238 961.515 690.183 C 966.973 707.396 975.328 723.843 976.458 742.041 C 974.178 739.782 969.34 721.942 967.762 717.493 C 969.942 736.469 977.973 754 978.227 773.336 C 968.84 752.64 967.339 728.324 962.005 706.4 C 958.97 693.928 953.349 680.733 951.919 668.12 z"/>
<path transform="translate(0,0)" fill="rgb(234,230,214)" d="M 947.284 660.764 L 947.553 656.73 C 948.283 659.113 949.022 661.491 949.67 663.898 C 949.152 672.191 951.595 682.359 952.475 690.746 C 954.342 708.532 955.851 726.6 957.12 744.444 L 951.065 724.996 C 951.174 743.016 955.982 758.758 958.239 776.284 C 940.291 739.799 953.296 699.735 947.284 660.764 z"/>
<path transform="translate(0,0)" fill="rgb(60,75,79)" d="M 1323.3 817.915 L 1324.19 818.281 C 1326.59 823.832 1324.63 899.379 1324.77 913.201 C 1294.52 915.949 1265.67 909.75 1236.85 901.1 C 1231.77 899.379 1226.53 897.969 1221.39 896.434 C 1243.19 880.654 1260.49 859.931 1281.27 843.093 C 1294.21 832.601 1308.28 824.992 1323.3 817.915 z"/>
<path transform="translate(0,0)" fill="rgb(60,75,79)" d="M 1270.67 1037.44 C 1289.78 1035.9 1306.67 1039.9 1324.96 1044.77 L 1324.77 1157.41 C 1315.1 1148.17 1305.45 1138.96 1295.3 1130.24 C 1283.38 1120.72 1271.99 1111.12 1261.85 1099.66 C 1252.53 1089.12 1244.72 1077.32 1235.92 1066.34 C 1228.32 1056.85 1219.84 1048.48 1211.02 1040.13 C 1231.02 1040.73 1250.75 1038.99 1270.67 1037.44 z"/>
<path transform="translate(0,0)" fill="rgb(60,75,79)" d="M 516.157 1228.62 C 520.803 1235.04 522.072 1245.52 525.3 1252.99 C 537.381 1280.97 558.023 1303.25 584.308 1318.39 C 558.944 1329.47 536.152 1358.47 525.178 1383.55 C 521.898 1391.04 520.427 1399.54 516.648 1406.75 C 516.552 1406.93 516.451 1407.11 516.352 1407.29 A 350.898 350.898 0 0 0 514.435 1401.25 C 502.653 1365.18 481.471 1334.76 446.891 1317.26 A 127.182 127.182 0 0 0 450.441 1315.49 C 487.241 1296.38 504.05 1266.44 516.157 1228.62 z"/>
<path transform="translate(0,0)" fill="rgb(60,75,79)" d="M 767.672 1273.79 C 769.29 1282.11 762.038 1315.72 760.482 1325.8 C 756.55 1351.25 753.462 1376.8 749.223 1402.21 C 744.181 1432.45 737.96 1462.87 734.383 1493.3 C 725.361 1476.73 715.32 1460.72 705.743 1444.46 C 689.19 1413.54 672.629 1381.96 658.912 1349.69 C 675.418 1339.52 691.248 1328.19 707.377 1317.43 C 728.267 1303.49 749.213 1290.97 767.672 1273.79 z"/>
<path transform="translate(0,0)" fill="rgb(60,75,79)" d="M 1174.31 1107.34 C 1237.89 1123.05 1270.94 1125.78 1324.94 1167.47 A 9092.56 9092.56 0 0 0 1324.61 1338.35 C 1324.17 1338.46 1323.33 1338.15 1322.88 1338.05 C 1282.13 1290 1234.83 1246.38 1206.86 1188.99 C 1194.07 1162.73 1185.86 1134.26 1174.31 1107.34 z"/>
<path transform="translate(0,0)" fill="rgb(60,75,79)" d="M 578.076 931.744 C 628.366 935.527 683.956 941.269 731.806 957.024 C 748.362 962.475 762.955 972.516 779.327 977.793 L 780.499 978.161 C 770.542 984.107 761.746 991.957 752.5 998.939 C 743.977 1005.37 734.976 1011.04 725.929 1016.7 C 682.346 1042.54 632.965 1057.83 584.482 1071.44 C 579.613 1024.86 577.937 978.572 578.076 931.744 z"/>
<path transform="translate(0,0)" fill="rgb(60,75,79)" d="M 589.325 787.832 C 635.701 807.309 686.22 823.037 727.194 852.945 C 747.366 867.669 763.298 888.342 783.906 902.098 L 785.009 902.826 C 774.919 905.519 765.107 908.965 755.243 912.377 C 699.906 931.499 635.98 928.962 578.242 925.146 C 581.253 879.041 583.524 833.771 589.325 787.832 z"/>
<path transform="translate(0,0)" fill="rgb(60,75,79)" d="M 727.971 1048.42 C 749.745 1045.59 773.289 1050.42 794.91 1052.93 C 781.597 1067.63 771.569 1084.92 758.292 1099.69 C 725.616 1136.03 677.26 1171.3 636.796 1198.82 A 823.235 823.235 0 0 1 612.102 1214.52 A 992.622 992.622 0 0 1 585.37 1078.77 C 626.509 1066.63 685.984 1052.08 727.971 1048.42 z"/>
<path transform="translate(0,0)" fill="rgb(60,75,79)" d="M 633.033 615.637 C 646.491 629.563 660.165 643.305 673.129 657.697 C 689.11 675.437 704.28 693.91 720.058 711.833 C 742.441 737.261 767.843 760.955 787.289 788.755 C 797.126 802.816 804.825 818.523 812.826 833.676 C 800.357 832.159 787.769 832.202 775.249 831.241 C 711.795 829.674 649.259 803.127 590.877 780.757 C 596.493 747.934 602.951 715.483 611.787 683.351 C 618.053 660.565 625.784 638.128 633.033 615.637 z"/>
<path transform="translate(0,0)" fill="rgb(60,75,79)" d="M 837.682 1116.3 C 837.679 1116.53 837.715 1116.77 837.674 1116.99 C 836.687 1122.33 834.23 1127.9 832.575 1133.12 C 828.155 1147.06 823.685 1160.83 817.839 1174.25 C 806.41 1200.47 776.407 1254.71 755.477 1273.57 C 741.601 1286.07 724.799 1295.48 709.201 1305.68 A 1971.89 1971.89 0 0 0 655.894 1342.13 C 651.862 1333.1 648.563 1323.61 644.994 1314.38 C 633.184 1284.45 622.696 1253.28 613.727 1222.37 C 668.17 1191.23 721.779 1145.75 782.117 1126.74 C 800.256 1121.03 819.33 1120.97 837.682 1116.3 z"/>
<path transform="translate(0,0)" fill="rgb(60,75,79)" d="M 396.659 912.417 C 406.544 911.313 418.395 912.285 428.156 914.082 C 431.309 914.663 435.086 915.218 436.993 918.034 C 436.32 919.89 436.131 920.376 434.301 921.4 C 431.235 923.116 427.322 923.627 424.03 924.92 C 417.314 927.558 410.431 931.235 404.181 934.867 C 378.132 950.002 358.133 977.183 350.507 1006.22 A 115.951 115.951 0 0 0 362.389 1093.83 C 390.102 1141.04 442.503 1158.55 493.942 1143.14 C 502.105 1140.7 513.397 1131.41 521.608 1133.52 L 522.347 1135.6 C 519.324 1149.67 491.566 1172.04 479.582 1180.4 C 462.366 1191.78 441.513 1198.9 420.998 1200.8 A 142.028 142.028 0 0 1 318.101 1168.42 C 288.389 1143.49 269.863 1105.92 266.5 1067.43 C 263.082 1028.3 276.566 990.431 301.795 960.679 A 139.184 139.184 0 0 1 396.659 912.417 z"/>
<path transform="translate(0,0)" fill="rgb(234,230,214)" d="M 371.014 930.194 L 371.274 930.38 C 371.072 932.364 368.377 933.444 366.708 934.528 C 337.366 953.597 312.564 975.847 299.655 1009.53 A 125.718 125.718 0 0 0 302.234 1106.01 C 315.073 1134.56 339.06 1158.65 368.531 1169.77 C 407.736 1184.55 444.502 1176.35 481.237 1159.88 C 477.752 1162.98 473.956 1165.54 470.119 1168.17 C 462.151 1172.66 454.133 1176.46 445.428 1179.32 A 120.886 120.886 0 0 1 352.613 1171.69 C 321.164 1155.56 298.749 1127.41 288.224 1093.81 C 277.786 1060.49 281.822 1023.17 297.959 992.338 C 313.593 962.462 338.729 940.396 371.014 930.194 z"/>
<path transform="translate(0,0)" fill="rgb(60,75,79)" d="M 996.521 786.405 L 997.842 786.299 C 1042.26 782.856 1087.41 802.026 1120.58 830.73 C 1152.61 858.437 1172.78 900.508 1175.76 942.682 C 1179.11 990.144 1165.41 1031.91 1134.3 1067.69 C 1106.64 1099.51 1063.56 1123.17 1021.11 1126.14 A 167.84 167.84 0 0 1 901.443 1088.34 C 867.196 1060.07 843.792 1017.5 839.721 973.134 C 835.729 929.625 849.666 882.144 877.89 848.535 C 908.926 811.578 948.482 790.514 996.521 786.405 z"/>
<path transform="translate(0,0)" fill="rgb(234,230,214)" d="M 989.686 804.376 C 989.873 804.342 990.059 804.295 990.249 804.273 C 1028.97 799.903 1068.03 811.88 1099.14 834.905 C 1129.51 857.374 1152.15 895.11 1157.62 932.52 C 1163.48 972.594 1154.53 1014.22 1130.14 1046.88 C 1104.36 1081.39 1067.66 1102.5 1025.27 1108.66 C 1025.21 1108.67 1025.15 1108.69 1025.09 1108.69 C 986.471 1112.99 948.3 1103.35 917.244 1079.69 C 886.005 1055.89 863.254 1018.6 858.093 979.525 C 852.743 939.017 863.186 894.893 888.477 862.45 C 913.652 830.157 949 809.486 989.686 804.376 z"/>
<path transform="translate(0,0)" fill="rgb(60,75,79)" d="M 1003.55 809.422 C 1038.35 808.777 1073.13 821.808 1100.04 843.724 C 1128.52 866.927 1148.97 902.253 1152.52 939.09 C 1156.49 980.231 1144.87 1020.34 1118.4 1052.24 C 1092.22 1083.82 1055.07 1099.96 1014.84 1103.86 A 145.626 145.626 0 0 1 911.806 1067.54 A 146.497 146.497 0 0 1 863.19 966.013 C 860.995 925.753 874.155 887.734 901.15 857.692 C 928.322 827.453 963.28 811.59 1003.55 809.422 z"/>
<path transform="translate(0,0)" fill="rgb(234,230,214)" d="M 984.518 1044.74 C 1000.19 1046.42 1013.98 1048.31 1029.6 1044.59 L 1021.81 1052.99 C 1020.57 1054.23 1019.32 1055.38 1017.96 1056.5 C 1014.05 1059.71 1010.34 1061.82 1005.07 1061.13 C 996.449 1060.01 989.473 1051.2 984.518 1044.74 z"/>
<path transform="translate(0,0)" fill="rgb(234,230,214)" d="M 1003.94 1004.76 C 1009.28 1003.45 1018.74 1001.51 1022.95 997.92 C 1026.03 995.303 1019.41 983.671 1019.56 978.606 L 1020.56 977.777 C 1023.93 979.449 1025.98 982.744 1028.25 985.651 C 1029.29 987.47 1030.57 989.537 1030.9 991.627 C 1031.33 994.332 1030.46 996.978 1028.85 999.142 C 1024.64 1004.82 1011.31 1011.22 1004.28 1011.25 C 1000.52 1011.27 992.545 1005.05 989.642 1002.8 C 986.909 1000.67 982.219 996.691 981.992 993.102 C 981.694 988.386 988.868 981.309 991.813 977.752 C 992.053 977.99 992.335 978.191 992.534 978.464 C 994.09 980.596 993.899 981.304 993.579 983.771 C 991.439 986.234 989.371 988.173 988.814 991.508 C 990.06 995.748 992.292 998.195 996.127 1000.35 L 1003.94 1004.76 z"/>
<path transform="translate(0,0)" fill="rgb(234,230,214)" d="M 1005.17 1023.1 C 1016.15 1023.31 1029.29 1029.43 1040.28 1032 C 1030.7 1035.29 1021.68 1036.84 1011.63 1037.68 C 998.638 1038.04 986.199 1036.07 973.665 1032.86 A 1282.9 1282.9 0 0 1 1005.17 1023.1 z"/>
<path transform="translate(0,0)" fill="rgb(234,230,214)" d="M 938.565 905.397 C 946.684 904.003 956.437 906.123 963.275 910.694 C 976.642 919.631 981.952 935.926 984.866 950.908 L 977.096 938.006 A 72.4206 72.4206 0 0 0 974.849 934.909 C 960.286 915.699 937.673 912.125 915.306 909.013 C 923.064 907.447 930.705 906.292 938.565 905.397 z"/>
<path transform="translate(0,0)" fill="rgb(234,230,214)" d="M 1061.38 905.229 C 1074.35 903.907 1086.33 905.125 1098.04 911.028 C 1076.21 910.588 1061.77 913.069 1044.58 927.722 C 1037.53 934.628 1032.62 942.605 1027.54 950.972 C 1029.27 943.234 1031.23 935.728 1034.72 928.561 C 1040.56 916.539 1048.89 909.607 1061.38 905.229 z"/>
<path transform="translate(0,0)" fill="rgb(234,230,214)" d="M 1079.41 935.205 C 1088.11 934.66 1095.36 935.495 1103.84 937.557 C 1095.42 949.529 1087.15 955.44 1072.89 959.03 C 1067.86 959.33 1062.28 959.503 1057.3 958.792 C 1053.65 958.271 1051.49 957.282 1049.3 954.393 C 1049.54 952.4 1049.52 951.573 1050.66 949.937 C 1056.67 941.34 1069.59 937.034 1079.41 935.205 z"/>
<path transform="translate(0,0)" fill="rgb(234,230,214)" d="M 924.336 935.275 C 929.025 935.005 933.806 935.055 938.435 935.941 C 950.566 938.265 958.733 946.005 965.461 955.909 C 959.57 957.37 953.622 958.072 947.611 958.821 C 929.999 959.173 917.474 951.491 904.686 940.076 C 911.244 938.061 917.527 936.299 924.336 935.275 z"/>
<path transform="translate(0,0)" fill="rgb(234,230,214)" d="M 1006.17 842.688 A 388.083 388.083 0 0 0 1009.06 849.794 C 1015.75 865.761 1023.51 873.642 1039.45 880.192 C 1019.9 888.535 1013.44 901.477 1005.87 920.302 C 998.098 899.885 992.442 890.062 972.261 880 C 992.05 872.514 997.776 861.14 1006.17 842.688 z"/>
<path transform="translate(0,0)" fill="rgb(60,75,79)" d="M 1006.13 865.785 C 1008.84 871.155 1014.45 877.024 1015.98 882.457 C 1011.66 886.7 1008.94 890.249 1007.52 896.287 C 1007.44 896.615 1007.37 896.946 1007.3 897.276 L 1001.99 886.337 C 999.223 884.4 996.098 882.928 993.108 881.357 L 1002.34 876.11 L 1006.13 865.785 z"/>
<path transform="translate(0,0)" fill="rgb(60,75,79)" d="M 897.716 1155.86 C 897.701 1156.73 897.716 1157.63 897.665 1158.5 C 897.147 1167.39 898.986 1176.23 899.94 1185.06 C 901.504 1199.54 901.685 1214.28 899.687 1228.72 C 897.067 1247.66 892.914 1267.5 888.097 1285.98 C 883.305 1304.37 875.249 1325.24 874.94 1344.34 C 893.434 1308.8 909.507 1272.44 930.642 1238.28 C 942.587 1218.97 960.461 1202.76 970.031 1182.31 C 977.572 1209.35 993.205 1226.42 998.278 1257.11 C 1002.72 1284 1005.86 1314.27 1005.18 1341.58 C 1004.38 1373.7 999.786 1405.97 998.086 1438.11 C 993.52 1524.47 996.104 1610.8 1010.25 1696.2 C 1013.33 1714.77 1015.99 1734.25 1021.5 1752.24 C 1022.98 1762.61 1025.54 1775.21 1030.01 1784.71 C 1028.96 1784.82 1028.78 1784.92 1027.59 1784.62 C 1019.83 1782.68 987.529 1760.63 979.903 1755.3 C 903.423 1701.84 839.068 1635.26 782.449 1561.42 C 768.109 1542.72 755.514 1522.81 741.248 1504.11 C 744.889 1464.11 753.954 1422.85 760.575 1383.12 C 767.349 1342.49 772.236 1301.53 779.502 1260.98 C 802.262 1238.28 821.585 1211.9 846.3 1191.19 C 862.373 1177.72 882.314 1170.03 897.716 1155.86 z"/>
<path transform="translate(0,0)" fill="rgb(234,230,214)" d="M 860.514 1483.03 C 862.264 1486.51 863.601 1490.12 865.218 1493.65 C 870.008 1504.11 876.156 1507.71 886.553 1511.64 C 858.785 1523.59 869.418 1532.56 860.561 1539.95 C 859.566 1538.9 859.822 1539.37 859.301 1538.08 C 858.153 1535.25 857.057 1532.41 855.847 1529.6 C 850.967 1518.28 844.039 1516.29 833.301 1512 C 836.893 1510.64 840.647 1509.4 844.101 1507.72 C 854.245 1502.79 857.189 1492.87 860.514 1483.03 z"/>
<path transform="translate(0,0)" fill="rgb(60,75,79)" d="M 1324.41 1350.83 A 23377.1 23377.1 0 0 1 1324.02 1668.43 L 1323.97 1781.23 C 1323.97 1801.18 1325.19 1822.08 1323.5 1841.93 C 1323.02 1847.56 1320.8 1852.82 1317.31 1857.24 C 1311.83 1864.19 1303.83 1868.31 1295.09 1869.31 C 1283.95 1870.58 1272.22 1869.83 1261 1869.74 A 2730.6 2730.6 0 0 0 1203.81 1869.59 A 19600.9 19600.9 0 0 1 931.128 1869.31 L 458.883 1869.13 L 320.205 1869.06 C 298.348 1869.07 276.154 1870.08 254.345 1869.22 C 244.485 1868.83 234.494 1866.43 226.749 1860.02 C 219.869 1854.32 214.986 1844.38 214.274 1835.57 C 212.279 1810.89 213.833 1784.82 213.921 1760 L 214.037 1623.36 L 214.69 1148.68 L 214.98 532.138 L 214.959 326.743 C 214.978 289.961 213.949 252.767 215.438 216.033 C 215.899 204.65 217.664 194.913 225.35 186.105 C 232.997 177.341 243.711 173.555 255.104 172.961 C 278.22 171.755 302.097 172.965 325.288 172.944 L 464.346 172.772 L 829.914 172.627 L 1145.54 172.108 L 1238.43 171.991 C 1255.57 171.966 1272.99 171.315 1290.1 172.224 C 1298.55 172.672 1306.84 175.087 1313.22 180.884 C 1321.17 188.117 1323.36 196.731 1323.8 207.143 C 1325.25 241.669 1323.99 276.776 1323.98 311.361 L 1324.41 495.27 L 1324.87 699.957 C 1324.92 733.577 1326.12 767.638 1324.94 801.205 C 1324.82 804.824 1324.96 807.338 1322.47 810.06 L 1320.87 809.977 C 1321.52 808.183 1322.27 806.457 1323.04 804.716 C 1319.61 803.199 1297.5 812.953 1292.82 814.632 C 1260.16 826.326 1224.65 826.624 1190.59 831.57 C 1200.11 820.008 1205.71 803.621 1212.27 790.209 A 253.727 253.727 0 0 1 1238.33 747.74 A 480.221 480.221 0 0 1 1267.89 712.826 C 1276.56 703.615 1314.76 669.174 1317.8 662.74 C 1318.65 660.934 1317.96 660.127 1317.31 658.396 L 1315.59 657.795 C 1306.01 664.429 1297.08 673.609 1288.24 681.299 C 1267.03 699.733 1246.08 718.123 1222.84 733.998 C 1197.53 751.283 1165.79 758.654 1142.15 777.602 C 1149.37 742.85 1143.63 705.374 1158.35 672.181 C 1175.89 632.636 1316.2 429.047 1316.3 416.45 C 1316.32 413.654 1315.52 411.435 1313.69 409.385 L 1311.99 409.533 C 1305.01 418.119 1299.81 429.422 1293.96 438.896 C 1281.49 459.101 1268.65 479.066 1256.33 499.37 C 1248.45 484.15 1241.92 467.722 1235.11 451.984 A 1075.11 1075.11 0 0 1 1176.85 283.825 C 1171.19 261.434 1166.42 238.264 1162.4 215.506 C 1160.92 207.114 1160.9 198.372 1159.11 190.064 C 1158.51 187.312 1157.62 184.974 1156.09 182.59 C 1153.68 181.083 1153.66 180.964 1150.86 181.292 C 1148.35 190.32 1153.06 205.558 1154.53 214.838 C 1168.24 301.879 1196.73 386.915 1231.58 467.615 C 1237.45 481.205 1242.72 494.987 1249.22 508.306 C 1234.64 534.383 1217.5 559.468 1201.73 584.879 C 1190.73 602.608 1178.03 626.855 1164.87 642.315 C 1169.26 628.458 1183.87 607.547 1185.09 595.213 C 1185.32 592.957 1185.22 592.674 1183.84 590.92 C 1181.71 591.484 1181.72 591.716 1180.6 593.623 C 1175.04 603.031 1170.81 613.548 1165.82 623.31 C 1161.05 632.656 1155.46 641.538 1150.13 650.574 C 1140.59 666.78 1130.64 682.011 1118.18 696.159 C 1103.23 713.141 1086.59 728.119 1073.11 746.427 C 1073.6 722.497 1063.35 700.044 1060.57 676.403 C 1056.3 640.189 1062.57 605.483 1065.16 569.58 C 1062.54 574.951 1060 580.37 1058.2 586.08 C 1056.75 590.684 1056.45 599.191 1054.12 602.957 C 1052.88 592.114 1056.51 579.275 1057.8 568.429 L 1064.12 510.15 C 1070.49 449.907 1076.15 389.011 1078.19 328.457 C 1084.97 327.198 1090.01 324.369 1093.91 318.527 A 22.4467 22.4467 0 0 0 1097.17 300.601 C 1094.05 287.766 1089.31 290.868 1082.15 284.343 C 1080.27 282.636 1080.72 279.041 1080.58 276.636 C 1079.68 278.888 1079.16 280.876 1076.99 282.222 L 1075.22 281.763 C 1073.38 277.635 1073.3 273.117 1072.89 268.664 C 1072.25 273.977 1072.04 279.123 1072.07 284.473 C 1064.86 287.043 1059.05 289.865 1055.51 297.218 C 1052.94 302.551 1053.04 308.663 1055.24 314.097 C 1058.09 321.151 1063.14 324.973 1069.27 328.911 C 1068.35 403.272 1058.34 482.622 1050.19 556.644 C 1047.46 581.477 1047.16 612.744 1040.81 636.224 C 1031.49 670.67 1012.12 701.646 1000.79 735.535 C 989.398 705.575 969.625 680.041 958.004 650.126 C 949.749 628.877 944.891 605.705 938.171 583.871 C 936.378 578.043 934.989 570.683 931.774 565.503 C 931.004 567.164 930.828 568.496 930.727 570.344 C 928.897 603.539 937.193 636.928 935.684 670.172 C 934.563 694.87 923.128 726.467 925.809 748.141 C 904.442 724.525 880.365 706.976 860.37 681.375 C 858.082 668.882 857.934 655.716 857.466 643.041 C 855.511 590.032 857.296 533.919 870.843 482.453 C 874.6 481.244 877.92 480.278 881.024 477.707 C 876.279 478.977 864.07 478.606 861.533 481.741 C 860.876 490.324 858.431 499.111 856.858 507.612 A 457.537 457.537 0 0 0 851.945 542.709 C 847.77 584.938 849.191 627.532 850.134 669.871 C 841.734 652.418 822.964 619.487 809.202 607.014 C 812.925 620.201 819.086 633.048 824.101 645.811 A 936.673 936.673 0 0 1 841.693 695.723 C 847.128 712.528 853.217 729.627 857.365 746.793 C 860.442 759.524 861.779 772.669 865.842 785.151 C 837.788 767.605 806.516 757.084 778.468 739.504 C 729.437 708.771 678.196 649.33 636.743 607.163 C 661.236 547.156 692.401 486.297 729.206 432.899 C 748.447 404.984 769.796 379.043 790.01 351.926 C 764.312 363.471 737.26 376.794 715.089 394.355 C 699.859 406.418 686.903 421.779 675.023 437.055 C 634.184 489.567 605.884 552.825 554.496 596.411 C 521.078 624.755 485.504 641.157 442.872 650.497 C 421.893 655.092 400.668 658.712 380.766 667.066 C 316.733 693.948 264.422 768.559 225.02 823.722 L 224.646 1068.8 C 224.493 1135.99 223.326 1203.32 224.486 1270.48 C 239.386 1290.32 256.342 1309.07 273.277 1327.19 C 321.22 1378.49 374.434 1426.37 442.186 1448.86 C 486.404 1463.54 532.548 1471.41 576.996 1485.3 C 688.151 1520.03 735.113 1577.92 787.688 1678.4 C 848.31 1794.25 892.556 1780.58 999.44 1823.71 C 1010.92 1828.35 1022.73 1833.36 1033.41 1839.66 C 1042.02 1844.74 1051.44 1854.73 1060.65 1857.61 C 1061.18 1857.84 1061.88 1858.19 1062.45 1858.35 C 1066.95 1859.58 1182.41 1859.49 1191.45 1858.81 C 1194.33 1858.59 1196.68 1857.47 1199.17 1856.06 C 1197.75 1856.42 1196.12 1856.87 1194.65 1856.84 C 1176.61 1856.51 1051.67 1803.35 1039.27 1789.75 C 1034.66 1781 1032.83 1764.51 1030.39 1754.61 C 1005.93 1655.31 1002.74 1552.86 1005.1 1451.09 C 1012.3 1466.31 1028.83 1486.02 1039.55 1499.58 C 1104.18 1581.36 1198.5 1673.38 1286.83 1729.19 C 1295.6 1734.74 1304.92 1742.13 1314.55 1745.85 L 1315.68 1744.88 L 1316.01 1740.18 C 1313.72 1735.38 1290.68 1722.05 1284.66 1717.89 C 1253.83 1696.59 1224.87 1674.19 1196.42 1649.83 C 1147.98 1608.36 1101.81 1562.87 1061.52 1513.41 A 948.035 948.035 0 0 1 1029.41 1471.97 C 1021.88 1461.61 1014.71 1449.65 1005.8 1440.48 C 1007.58 1416.93 1008.92 1393.23 1011.39 1369.75 C 1012.39 1360.19 1014.47 1350.76 1015.36 1341.2 C 1016.48 1329.11 1016.5 1316.91 1017.46 1304.8 A 415.662 415.662 0 0 1 1024.78 1255.18 C 1029.89 1229.84 1045.62 1205.55 1048.41 1181.3 C 1056.66 1197.96 1069.57 1208.7 1080.68 1223.11 C 1095.63 1242.49 1106.9 1263.07 1117.58 1284.99 C 1115.63 1288.52 1113.65 1291.99 1113.27 1296.09 C 1112.79 1301.19 1114.03 1306.44 1117.63 1310.22 C 1122.17 1314.98 1126.5 1316.09 1132.74 1316.35 C 1149.46 1355.03 1167.32 1392.44 1187.66 1429.38 C 1196.01 1444.53 1203.98 1460.19 1214.56 1473.94 C 1210.96 1477.42 1207.72 1481.61 1207.21 1486.74 C 1206.68 1492.06 1207.63 1499.09 1211.31 1503.18 C 1216.89 1509.4 1223.97 1507.21 1231.11 1507.83 C 1233.68 1508.06 1234.9 1509.62 1236.42 1511.55 C 1242.81 1519.67 1248.29 1529.02 1254.54 1537.39 A 1987.54 1987.54 0 0 0 1314.7 1614.87 C 1315.06 1614.07 1315.21 1613.84 1315.37 1612.86 C 1316.03 1608.77 1315.48 1603.92 1313.46 1600.3 C 1307.47 1589.58 1291.09 1572.47 1282.78 1561.91 C 1267.88 1542.98 1254.05 1523.07 1239.94 1503.54 C 1240.09 1503.29 1240.25 1503.05 1240.4 1502.8 L 1241.15 1501.55 C 1243.89 1497.03 1245.49 1493.17 1245.25 1487.77 C 1245.03 1483.01 1243.35 1478.73 1239.67 1475.61 C 1234.22 1470.98 1228.2 1470.26 1221.42 1471.03 C 1214.33 1460.6 1208.21 1449.27 1201.91 1438.34 C 1178.84 1398.29 1159.49 1357.22 1140.59 1315.07 C 1143.3 1313.17 1146.2 1311.24 1148.22 1308.58 C 1151.61 1304.1 1152.79 1299.24 1151.75 1293.73 C 1148.61 1277.02 1141.06 1285.45 1132.18 1279.34 C 1122.33 1263.69 1115.59 1216.67 1116.05 1197.16 C 1116.35 1184.51 1118.91 1172.03 1119.07 1159.37 L 1119.08 1157.86 C 1138.85 1173.69 1162.09 1184.37 1181.59 1200.63 C 1198.36 1214.61 1213.43 1230.64 1228.62 1246.28 A 3453.45 3453.45 0 0 1 1324.41 1350.83 z"/>
<path transform="translate(0,0)" fill="rgb(234,230,214)" d="M 1069.56 1433.36 C 1070.26 1433.39 1070.97 1433.4 1071.67 1433.48 C 1074.46 1433.8 1075.6 1434.73 1077.36 1436.84 C 1077.85 1439.81 1077.26 1441.48 1076.2 1444.26 C 1075.56 1444.3 1074.92 1444.36 1074.28 1444.35 C 1071.3 1444.32 1070.17 1443.67 1068.2 1441.56 C 1067.73 1438.27 1068.36 1436.42 1069.56 1433.36 z"/>
<path transform="translate(0,0)" fill="rgb(234,230,214)" d="M 839.763 732.59 C 842.499 732.738 843.964 733.025 846.306 734.478 C 847.451 736.267 848.411 737.248 848.362 739.495 C 848.282 743.15 845.897 745.482 843.331 747.737 C 841.482 747.355 839.151 746.716 837.655 745.475 C 835.813 743.946 834.936 741.98 835.093 739.595 C 835.287 736.663 837.809 734.497 839.763 732.59 z"/>
<path transform="translate(0,0)" fill="rgb(234,230,214)" d="M 998.979 385.665 C 1002.39 385.846 1005.27 386.429 1007.55 389.217 C 1009.01 391.01 1009.52 393.166 1009.23 395.442 C 1008.68 399.787 1006.34 401.721 1002.97 404.188 C 999.832 404.013 997.002 403.515 994.789 401.101 C 993.248 399.419 992.682 397.323 992.905 395.077 C 993.343 390.658 995.834 388.439 998.979 385.665 z"/>
<path transform="translate(0,0)" fill="rgb(234,230,214)" d="M 1260.13 1342.11 C 1261.9 1342.39 1263.76 1342.65 1265.46 1343.24 C 1268.1 1344.16 1270.42 1346.53 1271.57 1349.05 C 1272.89 1351.93 1272.74 1355.08 1271.54 1357.97 C 1269.5 1362.84 1266.1 1364.33 1261.54 1366.18 C 1259.69 1365.95 1257.73 1365.67 1256.03 1364.88 C 1253.06 1363.51 1250.72 1360.55 1249.79 1357.45 C 1248.88 1354.39 1249.46 1350.79 1251.05 1348.04 C 1253.18 1344.35 1256.23 1343.28 1260.13 1342.11 z"/>
<path transform="translate(0,0)" fill="rgb(234,230,214)" d="M 1113.21 1731.09 C 1116.47 1732.22 1119.95 1732.03 1123.03 1733.89 C 1127.08 1736.33 1130.6 1741.05 1131.38 1745.75 C 1131.95 1749.22 1131.1 1753.28 1128.75 1755.97 C 1126.65 1758.36 1124.54 1759.24 1121.5 1759.37 C 1119.02 1760.78 1116.87 1761.21 1114 1760.96 C 1110.66 1760.66 1108.06 1759.6 1106.03 1756.84 C 1103.24 1753.04 1102.95 1747.78 1103.75 1743.28 C 1104.84 1737.14 1108.51 1734.55 1113.21 1731.09 z"/>
<path transform="translate(0,0)" fill="rgb(234,230,214)" d="M 250.495 183.332 C 258.802 182.846 267.328 183.162 275.659 183.14 C 264.513 192.53 253.11 200.502 240.647 208.058 C 235.402 211.195 229.928 213.654 224.363 216.15 C 225.443 208.784 226.924 201.21 231.202 194.942 C 236.09 187.78 242.336 184.914 250.495 183.332 z"/>
<path transform="translate(0,0)" fill="rgb(234,230,214)" d="M 1072.89 268.664 L 1073.09 205.001 C 1073.09 198.727 1071.82 190.416 1072.67 184.407 C 1072.81 183.456 1073.29 182.762 1073.8 181.984 C 1076.26 180.935 1077.83 181.205 1080.44 181.627 C 1084.39 186.266 1081.58 264.023 1080.82 274.957 C 1080.75 275.93 1080.78 275.593 1080.58 276.636 C 1079.68 278.888 1079.16 280.876 1076.99 282.222 L 1075.22 281.763 C 1073.38 277.635 1073.3 273.117 1072.89 268.664 z"/>
<path transform="translate(0,0)" fill="rgb(234,230,214)" d="M 750.057 530.596 C 753.417 535.394 755.01 542.828 757.828 548.247 C 763.068 558.32 769.933 561.922 780.3 565.134 A 297.45 297.45 0 0 0 774.437 567.554 C 759.017 574.259 757.12 585.993 751.555 600.29 L 749.94 600.6 C 747.428 593.163 744.946 585.032 740.322 578.614 C 734.855 571.025 727.93 567.914 719.024 566.426 A 201.8 201.8 0 0 0 727.886 562.315 C 742.416 555.084 745.208 544.958 750.057 530.596 z"/>
<path transform="translate(0,0)" fill="rgb(234,230,214)" d="M 224.246 1779.11 C 248.532 1786.8 273.161 1791.16 297.876 1797.05 C 343.752 1807.98 382.206 1827.59 418.633 1857.34 C 416.987 1858.55 415.034 1858.68 413.048 1858.77 C 378.839 1860.37 343.803 1858.83 309.528 1858.87 C 294.473 1858.89 260.392 1860.68 246.801 1858.48 C 240.985 1857.53 234.971 1854.12 230.848 1849.95 C 219.602 1838.58 223.918 1794.98 224.246 1779.11 z"/>
<path transform="translate(0,0)" fill="rgb(234,230,214)" d="M 299.876 182.479 A 2875.64 2875.64 0 0 1 396.644 182.683 C 366.951 226.476 337.925 261.291 292.506 289.245 C 270.637 301.316 248.298 309.922 224.775 318.127 L 224.474 228.689 C 240.228 219.769 255.772 210.742 270.323 199.91 C 276.942 194.983 282.175 187.912 289.234 183.718 C 291.887 182.141 296.822 182.535 299.876 182.479 z"/>
<path transform="translate(0,0)" fill="rgb(234,230,214)" d="M 224.68 1677.24 C 256.625 1695.75 293.33 1704.16 328.973 1712.42 C 377.898 1723.75 424.331 1736.42 465.67 1766.29 C 494.519 1787.13 517.183 1813.21 536.424 1842.99 C 538.918 1846.85 544.257 1853.21 544.977 1857.69 C 540.341 1859.73 444.174 1859.89 437.147 1857.81 C 432.924 1856.9 419.392 1843.83 414.985 1840.47 C 401.751 1830.37 387.034 1820.18 372.192 1812.63 C 355.473 1804.13 337.322 1797.04 319.375 1791.62 C 301.6 1786.25 233.491 1775.89 224.116 1766.57 C 224.103 1736.94 223.191 1706.83 224.68 1677.24 z"/>
<path transform="translate(0,0)" fill="rgb(234,230,214)" d="M 409.253 182.29 L 519.259 182.129 C 489.716 207.495 468.901 238.972 447.62 271.123 C 411.598 325.546 370.493 363.819 309.481 388.713 C 283.692 398.363 252.339 405.365 225.261 411.207 C 224.6 383.77 224.923 356.243 224.803 328.793 C 289.103 307.929 336.483 277.578 378.687 224.612 C 389.221 211.392 397.564 196.521 408.274 183.471 L 409.253 182.29 z"/>
<path transform="translate(0,0)" fill="rgb(234,230,214)" d="M 224.7 1562.3 C 233.155 1567.55 241.135 1573.96 249.38 1579.58 A 316.033 316.033 0 0 0 288.661 1602.24 C 342.947 1628.56 402.193 1634.25 458.508 1653.62 C 542.017 1682.33 582.772 1727.63 625.962 1802.21 C 636.266 1820 647.166 1838 656.159 1856.48 L 655.505 1857.5 C 649.009 1859.76 565.605 1859.67 559.085 1857.8 C 556.91 1856.14 529.999 1815.38 525.026 1809.08 A 274.037 274.037 0 0 0 390.818 1717.87 C 371.145 1711.65 350.634 1707.44 330.599 1702.5 C 305.313 1696.27 239.137 1681.75 224.38 1662.27 A 4331.62 4331.62 0 0 1 224.7 1562.3 z"/>
<path transform="translate(0,0)" fill="rgb(234,230,214)" d="M 536.647 182.404 C 587.789 180.367 639.588 182.085 690.79 182.254 C 656.834 214.344 608.529 226.365 573.913 257.839 C 541.227 287.557 521.124 323.645 497.227 360.154 C 490.079 371.075 481.496 381.315 473.053 391.244 C 434.734 436.305 391.779 464.628 334.935 480.623 C 288.284 489.837 264.664 495.963 225.092 523.273 L 224.778 422.125 C 259.528 411.486 296.092 406.033 329.212 390.681 C 377.907 368.111 416.16 332.89 446.945 289.318 C 472.79 252.737 496.574 205.419 536.647 182.404 z"/>
<path transform="translate(0,0)" fill="rgb(234,230,214)" d="M 224.348 1429.63 C 234.76 1436.98 244.192 1449.26 253.731 1458.05 C 278.981 1481.31 307.608 1502.8 338.072 1518.74 C 380.175 1540.78 425.911 1549.7 471.527 1561.14 C 491.375 1566.12 511.405 1571.06 530.654 1578.05 C 595.193 1601.49 645.4 1644.11 680.03 1703.33 C 697.53 1733.25 711.743 1765.2 730.934 1794.14 C 746.978 1818.33 766.833 1834.61 792.041 1848.58 C 797.786 1851.77 804.621 1855.9 811.059 1857.21 C 810.388 1857.66 810.084 1857.9 809.266 1858.2 C 804.503 1859.95 686.642 1859.42 674.556 1858.55 C 672.777 1858.42 671.616 1857.94 670.046 1857.16 C 664.285 1852.65 653.548 1830.13 649.397 1822.65 C 599.508 1732.72 554.872 1671.4 451.956 1640.45 C 419.964 1630.83 386.884 1625.21 354.767 1615.97 C 314.904 1604.51 279.752 1589.08 245.884 1565.07 C 238.538 1559.86 228.687 1553.7 224.265 1545.7 C 223.621 1507.06 223.945 1468.27 224.348 1429.63 z"/>
<path transform="translate(0,0)" fill="rgb(234,230,214)" d="M 732.923 182.48 L 820.608 182.149 C 794.277 214.296 763.512 247.453 728.113 269.736 C 692.708 292.022 658.991 304.794 628.844 335.394 C 607.871 356.682 591.786 380.91 575.374 405.695 C 544.927 451.675 513.906 497.06 466.954 527.667 C 445.042 541.951 421.933 552.762 396.324 558.435 C 375.947 562.949 355.052 565.95 335.35 573.039 C 310.686 581.912 288.905 596.647 268.654 613.028 C 253.205 626.477 237.882 640.519 225.252 656.72 A 6978.39 6978.39 0 0 1 224.986 535.947 C 246.378 518.385 275.782 502.939 302.704 496.42 C 319.531 492.346 336.648 490.249 353.253 485.107 C 379.351 477.024 402.898 464.556 425.112 448.761 A 320.592 320.592 0 0 0 504.599 366.083 C 526.699 333.428 545.629 299.137 573.785 270.982 C 595.322 249.446 624.21 236.207 650.252 221.141 C 670.263 209.564 688.968 197.083 707.007 182.645 L 732.923 182.48 z"/>
<path transform="translate(0,0)" fill="rgb(234,230,214)" d="M 224.359 1287.72 C 234.155 1295.58 252.828 1319.73 262.517 1330.46 C 297.625 1369.35 336.18 1406.05 381.773 1432.43 C 472.828 1485.12 578.582 1477.7 668.662 1540.47 C 704.737 1565.61 733.201 1601.67 755.025 1639.5 C 780.821 1684.22 802.025 1737.76 843.935 1770.17 C 881.911 1799.54 931.016 1808.98 975.146 1825.13 C 999.187 1833.94 1020.67 1844.69 1042.8 1857.4 L 1042.5 1858.3 C 1032.09 1860.87 976.161 1858.62 961.667 1858.56 C 921.239 1858.4 880.256 1860.11 839.903 1858.56 C 828.921 1858.13 783.078 1831.83 772.449 1824.03 C 733.278 1795.28 714.783 1742.84 691.129 1701.93 C 668.928 1663.53 639.733 1628.7 603.049 1603.4 C 567.248 1578.71 526.94 1564.36 485.018 1553.89 C 456.62 1546.8 427.592 1541.09 399.583 1532.62 C 326.965 1510.66 275.307 1468.33 224.141 1413.9 A 8179.11 8179.11 0 0 1 224.359 1287.72 z"/>
<path transform="translate(0,0)" fill="rgb(234,230,214)" d="M 832.801 182.154 C 888.078 181.559 943.389 182.675 998.659 181.643 C 985.878 188.213 973.912 196.212 961.101 202.745 C 955.585 249.525 927.919 306.315 909.514 349.963 C 897.423 378.636 886.585 407.462 877.589 437.253 C 880.767 439.203 883.902 441.307 886.06 444.421 C 889.706 449.682 891.612 457.907 890.258 464.141 A 21.5259 21.5259 0 0 1 881.024 477.707 C 876.279 478.977 864.07 478.606 861.533 481.741 C 859.756 481.433 858.095 481.046 856.538 480.091 C 850.891 476.627 846.296 471.155 845.183 464.52 C 844.079 457.942 845.538 450.903 849.504 445.499 C 854.846 438.222 861.008 436.203 869.539 434.907 C 883.882 388.19 902.735 348.172 920.856 303.355 A 762.82 762.82 0 0 0 952.967 209.053 C 914.688 231.126 877.244 261.063 846.211 292.452 C 835.199 303.589 818.631 325.053 807.583 333.252 C 798.278 340.157 785.585 343.092 775.075 347.98 C 739.784 364.393 706.912 384.156 681.348 413.918 C 631.633 471.799 601.429 545.987 541.585 594.809 C 513.75 617.517 480.896 632.251 446.026 640.335 C 431.882 643.614 417.425 645.693 403.359 649.275 C 324.782 669.284 271.422 743.95 224.959 805.262 L 225.183 672.807 C 234.972 657.143 249.898 642.784 263.411 630.307 C 283.153 612.08 307.369 594.111 332.514 584.196 C 348.76 577.791 366.288 574.839 383.3 571.205 C 418.835 563.616 448.729 551.838 478.752 531.129 C 555.058 478.495 578.037 399.69 639.005 339.042 C 663.898 314.28 693.166 301.522 723.017 284.023 C 764.858 259.495 804.135 220.995 832.801 182.154 z"/>
</svg>